# 3ds Max Wavefront OBJ Exporter v0.97b - (c)2007 guruware
# File Created: 18.03.2017 14:50:24

mtllib brick_walls.mtl

#
# object brick_exterior
#

v  -209.0318 280.9807 227.4204
v  -209.0318 -11.0000 227.4204
v  -162.0318 -11.0000 227.4204
v  -162.0318 280.9807 227.4204
v  -162.0318 -11.0000 180.4204
v  -162.0318 297.0727 180.4204
v  -162.0318 297.0727 199.5484
v  -209.0318 280.9807 180.4204
v  -181.1598 297.0727 180.4204
v  -209.0318 -11.0000 180.4204
v  2013.9683 250.0000 -369.5796
v  2013.9683 295.0000 -369.5796
v  1977.9680 295.0000 -369.5796
v  1977.9680 -11.0000 -369.5796
v  2024.9683 -11.0000 -369.5796
v  2024.9683 250.0000 -369.5796
v  2024.9683 -11.0000 -416.5796
v  2024.9683 295.0000 -416.5796
v  2024.9683 -11.0000 -131.5796
v  2024.9683 -11.0000 -178.5796
v  2024.9683 250.0000 -178.5796
v  2024.9683 295.0000 -131.5796
v  1977.9680 250.0000 -416.5796
v  1840.9681 250.0000 -416.5796
v  1840.9681 295.0000 -416.5796
v  1977.9680 -11.0000 -416.5796
v  1977.9680 250.0000 -405.5796
v  1977.9680 -11.0000 -405.5796
v  1977.9680 295.0000 -405.5796
v  1977.9680 250.0000 -131.5796
v  1977.9680 -11.0000 -131.5796
v  1940.9681 295.0000 -131.5796
v  1940.9681 250.0000 -131.5796
v  1977.9680 -11.0000 -178.5796
v  1977.9680 295.0000 -178.5796
v  2013.9683 250.0000 -178.5796
v  2013.9683 295.0000 -178.5796
v  1836.4683 0.0000 -178.5796
v  1836.4683 283.5788 -178.5796
v  1840.9681 280.9807 -178.5796
v  1885.9681 255.0000 -178.5796
v  1940.9681 255.0000 -178.5796
v  1940.9681 -8.6000 -178.5796
v  1840.9681 -8.6000 -178.5796
v  1831.9681 -8.6000 -178.5796
v  1831.9681 0.0000 -178.5796
v  1940.9681 -8.6000 -153.5796
v  1940.9681 269.4337 -153.5796
v  1940.1428 0.0605 111.3204
v  1940.1426 -8.6000 167.4204
v  1940.1426 -8.6000 -153.5796
v  1940.1428 0.0605 -100.4796
v  1940.1426 240.0000 -100.4796
v  1940.1426 266.0000 -153.5796
v  1940.1426 240.0000 111.3204
v  1940.1426 266.0000 167.4204
v  1915.9681 280.9807 167.4204
v  1553.9681 280.9807 167.4204
v  1553.9681 -8.6000 167.4204
v  1553.9681 -8.6000 227.4204
v  1458.9681 63.0000 227.4204
v  1218.9681 63.0000 227.4204
v  1075.4385 -1.5000 227.4204
v  851.4385 -1.5000 227.4204
v  851.4385 240.0000 227.4204
v  816.4387 240.0179 227.4204
v  816.4387 0.0426 227.4204
v  736.4387 0.0426 227.4204
v  736.4387 240.0179 227.4204
v  407.9682 240.0000 227.4204
v  407.9682 0.0605 227.4204
v  1075.4385 240.0000 227.4204
v  1218.9681 240.0000 227.4204
v  1553.9681 280.9807 227.4204
v  1458.9681 240.0000 227.4204
v  292.9682 280.9807 227.4204
v  327.9682 240.0000 227.4204
v  292.9682 -8.6000 227.4204
v  327.9682 0.0605 227.4204
v  292.9682 297.0726 -201.7767
v  292.9682 -8.6000 -201.7768
v  292.9682 -8.6000 -187.5796
v  292.9682 -1.5000 141.8669
v  292.9682 -1.5000 -152.1331
v  292.9682 240.0000 -152.1331
v  292.9682 240.0000 141.8669
v  292.9682 297.0727 199.5484
v  292.9682 297.0727 74.8546
v  -181.1598 297.0727 -187.5796
v  -209.0318 280.9807 -187.5796
v  -209.0318 -8.6000 -187.5796
v  145.4682 -1.5000 -187.5796
v  -78.5318 -1.5000 -187.5796
v  -78.5318 240.0000 -187.5796
v  292.9682 297.0727 -187.5796
v  157.7744 297.0727 -187.5796
v  145.4682 240.0000 -187.5796
v  -209.0318 -8.6000 -942.5796
v  -209.0318 0.0426 -580.5796
v  -209.0318 0.0426 -640.5797
v  -209.0318 0.0426 -711.5796
v  -209.0318 0.0426 -771.5797
v  -209.0318 219.5179 -771.5797
v  -209.0318 219.5179 -711.5796
v  -209.0318 219.5179 -640.5796
v  -209.0318 219.5179 -580.5796
v  -209.0318 0.0426 -296.5796
v  -209.0318 219.5179 -296.5796
v  -209.0318 0.0426 -236.5796
v  -209.0318 219.5179 -236.5796
v  -209.0318 280.9807 -942.5796
v  710.9681 -8.6000 -942.5796
v  261.8697 -1.5000 -942.5796
v  415.8697 -1.5000 -942.5796
v  500.3074 31.1009 -942.5796
v  655.3074 31.1009 -942.5796
v  655.3074 185.3009 -942.5796
v  500.3074 185.3009 -942.5796
v  415.8697 240.0000 -942.5796
v  -87.5318 163.0000 -942.5796
v  33.9682 163.0000 -942.5796
v  261.8697 240.0000 -942.5796
v  33.9682 240.0000 -942.5796
v  -87.5318 240.0000 -942.5796
v  710.9681 280.9807 -942.5796
v  1277.9681 0.0000 -1002.5796
v  988.9682 31.1009 -1002.5796
v  1143.9681 31.1009 -1002.5796
v  1143.9681 185.3009 -1002.5796
v  1277.9681 220.0000 -1002.5796
v  988.9682 185.3009 -1002.5796
v  709.5653 280.9807 -1002.5796
v  889.2182 68.0000 -1002.5796
v  889.2182 185.0000 -1002.5796
v  767.7182 185.0000 -1002.5796
v  709.5653 -8.6000 -1002.5796
v  767.7182 68.0000 -1002.5796
v  1840.9681 -8.6000 -1002.5796
v  1375.5883 0.0000 -1002.5796
v  1375.5883 220.0000 -1002.5796
v  1840.9681 280.9807 -1002.5796
v  1840.9681 0.0000 -436.5796
v  1840.9681 220.0000 -337.1996
v  1840.9681 0.0000 -337.1996
v  1840.9681 0.0000 -204.5796
v  1840.9681 240.0000 -436.5796
v  1840.9681 0.0000 -916.5796
v  1840.9681 240.0000 -916.5796
v  1840.9681 220.0000 -204.5796
v  1840.9681 0.0000 -178.5796
v  1840.9681 295.0000 -405.5796
v  1840.9681 250.0000 -405.5796
v  1977.9680 250.0000 -142.5796
v  1940.9681 250.0000 -142.5796
v  1940.9681 295.0000 -142.5796
v  1977.9680 295.0000 -142.5796
# 156 vertices

vn 0.0000 0.0000 1.0000
vn 1.0000 0.0000 -0.0000
vn 0.0000 0.0000 -1.0000
vn -1.0000 0.0000 -0.0000
vn 0.0000 0.0000 -0.0000
vn 1.0000 -0.0000 -0.0000
vn 1.0000 0.0000 0.0000
vn -0.0000 0.0000 1.0000
vn 0.0000 -0.0000 1.0000
vn -0.0000 -0.0000 1.0000
vn -0.9997 0.0000 0.0234
# 11 vertex normals

vt 0.7046 0.3710 0.0000
vt 0.7046 0.5373 0.0000
vt 0.6779 0.5373 0.0000
vt 0.6779 0.3710 0.0000
vt 0.9622 0.3703 0.0000
vt 0.9622 0.2040 0.0000
vt 0.9889 0.2040 0.0000
vt 0.9889 0.3795 0.0000
vt 0.9781 0.3795 0.0000
vt 0.9216 0.2132 0.0000
vt 0.9374 0.2040 0.0000
vt 0.9483 0.2040 0.0000
vt 0.9483 0.3795 0.0000
vt 0.9216 0.3795 0.0000
vt 0.6328 0.5373 0.0000
vt 0.6328 0.3710 0.0000
vt 0.6595 0.3710 0.0000
vt 0.6595 0.5373 0.0000
vt 0.8872 0.2297 0.0000
vt 0.8872 0.2040 0.0000
vt 0.9077 0.2040 0.0000
vt 0.9077 0.3783 0.0000
vt 0.8809 0.3783 0.0000
vt 0.8809 0.2297 0.0000
vt 0.7723 0.4237 0.0000
vt 0.7723 0.5724 0.0000
vt 0.7456 0.5724 0.0000
vt 0.7456 0.3981 0.0000
vt 0.9079 0.5724 0.0000
vt 0.8811 0.5724 0.0000
vt 0.8811 0.4237 0.0000
vt 0.9079 0.3981 0.0000
vt 0.9590 0.6178 0.0000
vt 0.8809 0.6178 0.0000
vt 0.8809 0.5921 0.0000
vt 0.9857 0.5921 0.0000
vt 0.9857 0.7664 0.0000
vt 0.9590 0.7664 0.0000
vt 0.8285 0.5919 0.0000
vt 0.8223 0.5919 0.0000
vt 0.8223 0.4432 0.0000
vt 0.8285 0.4432 0.0000
vt 0.8491 0.4432 0.0000
vt 0.8491 0.6175 0.0000
vt 0.8285 0.6175 0.0000
vt 0.7802 0.5919 0.0000
vt 0.7802 0.4432 0.0000
vt 0.8069 0.4432 0.0000
vt 0.8069 0.6175 0.0000
vt 0.7591 0.6175 0.0000
vt 0.7591 0.5919 0.0000
vt 0.9622 0.3981 0.0000
vt 0.9889 0.3981 0.0000
vt 0.9889 0.5467 0.0000
vt 0.9622 0.5724 0.0000
vt 0.9278 0.5467 0.0000
vt 0.9216 0.5467 0.0000
vt 0.9216 0.3981 0.0000
vt 0.9483 0.3981 0.0000
vt 0.9483 0.5724 0.0000
vt 0.9278 0.5724 0.0000
vt 0.5541 0.5325 0.0000
vt 0.5541 0.3710 0.0000
vt 0.5566 0.3725 0.0000
vt 0.5823 0.3873 0.0000
vt 0.6136 0.3873 0.0000
vt 0.6136 0.5374 0.0000
vt 0.5566 0.5374 0.0000
vt 0.5515 0.5374 0.0000
vt 0.5515 0.5325 0.0000
vt 0.8275 0.7956 0.0000
vt 0.8133 0.7956 0.0000
vt 0.8133 0.6455 0.0000
vt 0.8275 0.6373 0.0000
vt 0.8242 0.3510 0.0000
vt 0.8562 0.3559 0.0000
vt 0.6734 0.3559 0.0000
vt 0.7036 0.3510 0.0000
vt 0.7036 0.2143 0.0000
vt 0.6734 0.1995 0.0000
vt 0.8242 0.2143 0.0000
vt 0.8562 0.1995 0.0000
vt 0.4974 0.5601 0.0000
vt 0.5111 0.5515 0.0000
vt 0.7173 0.5515 0.0000
vt 0.7173 0.7164 0.0000
vt 0.4974 0.7164 0.0000
vt 0.7281 0.0100 0.0000
vt 0.6740 0.0508 0.0000
vt 0.5374 0.0508 0.0000
vt 0.4556 0.0140 0.0000
vt 0.3281 0.0140 0.0000
vt 0.3281 0.1516 0.0000
vt 0.3081 0.1516 0.0000
vt 0.3081 0.0149 0.0000
vt 0.2626 0.0149 0.0000
vt 0.2626 0.1516 0.0000
vt 0.0755 0.1516 0.0000
vt 0.0755 0.0149 0.0000
vt 0.4556 0.1516 0.0000
vt 0.5374 0.1516 0.0000
vt 0.7281 0.1749 0.0000
vt 0.6740 0.1516 0.0000
vt 0.0100 0.1749 0.0000
vt 0.0299 0.1516 0.0000
vt 0.0100 0.0100 0.0000
vt 0.0299 0.0149 0.0000
vt 0.9900 0.0100 0.0000
vt 0.9900 0.1841 0.0000
vt 0.9819 0.1841 0.0000
vt 0.7943 0.1800 0.0000
vt 0.9617 0.1800 0.0000
vt 0.9617 0.0425 0.0000
vt 0.7456 0.1841 0.0000
vt 0.7943 0.0425 0.0000
vt 0.7456 0.0192 0.0000
vt 0.7614 0.0100 0.0000
vt 0.8325 0.0100 0.0000
vt 0.7313 0.7320 0.0000
vt 0.7472 0.7412 0.0000
vt 0.7472 0.9061 0.0000
vt 0.5453 0.9021 0.0000
vt 0.6728 0.9021 0.0000
vt 0.6728 0.7645 0.0000
vt 0.4613 0.9061 0.0000
vt 0.4613 0.7320 0.0000
vt 0.5383 0.7320 0.0000
vt 0.5453 0.7645 0.0000
vt 0.4400 0.8969 0.0000
vt 0.2338 0.8920 0.0000
vt 0.2680 0.8920 0.0000
vt 0.3084 0.8920 0.0000
vt 0.3426 0.8920 0.0000
vt 0.3426 0.7670 0.0000
vt 0.3084 0.7670 0.0000
vt 0.2680 0.7670 0.0000
vt 0.2338 0.7670 0.0000
vt 0.0721 0.8920 0.0000
vt 0.0721 0.7670 0.0000
vt 0.0100 0.8969 0.0000
vt 0.0379 0.8920 0.0000
vt 0.0379 0.7670 0.0000
vt 0.0100 0.7320 0.0000
vt 0.4400 0.7320 0.0000
vt 0.5339 0.5359 0.0000
vt 0.0100 0.5359 0.0000
vt 0.2782 0.5319 0.0000
vt 0.3659 0.5319 0.0000
vt 0.4140 0.5133 0.0000
vt 0.5022 0.5133 0.0000
vt 0.5022 0.4255 0.0000
vt 0.4140 0.4255 0.0000
vt 0.3659 0.3944 0.0000
vt 0.0792 0.4382 0.0000
vt 0.1484 0.4382 0.0000
vt 0.2782 0.3944 0.0000
vt 0.1484 0.3944 0.0000
vt 0.0100 0.3710 0.0000
vt 0.0792 0.3944 0.0000
vt 0.5339 0.3710 0.0000
vt 0.3337 0.3505 0.0000
vt 0.1691 0.3328 0.0000
vt 0.2574 0.3328 0.0000
vt 0.2574 0.2450 0.0000
vt 0.3337 0.2252 0.0000
vt 0.1691 0.2450 0.0000
vt 0.0100 0.1905 0.0000
vt 0.1123 0.3118 0.0000
vt 0.1123 0.2452 0.0000
vt 0.0431 0.2452 0.0000
vt 0.0100 0.3554 0.0000
vt 0.0431 0.3118 0.0000
vt 0.6543 0.3554 0.0000
vt 0.3893 0.3505 0.0000
vt 0.3893 0.2252 0.0000
vt 0.6543 0.1905 0.0000
vt 0.3323 0.7115 0.0000
vt 0.3889 0.5863 0.0000
vt 0.3889 0.7115 0.0000
vt 0.4793 0.7164 0.0000
vt 0.4645 0.7115 0.0000
vt 0.3323 0.5749 0.0000
vt 0.0100 0.7164 0.0000
vt 0.0590 0.7115 0.0000
vt 0.0590 0.5749 0.0000
vt 0.0100 0.5515 0.0000
vt 0.4793 0.5515 0.0000
vt 0.4645 0.5863 0.0000
vt 0.4793 0.7115 0.0000
vt 0.0880 0.9833 0.0000
vt 0.0100 0.9833 0.0000
vt 0.0100 0.9577 0.0000
vt 0.0880 0.9577 0.0000
vt 0.1188 0.9427 0.0000
vt 0.0100 0.9427 0.0000
vt 0.0100 0.9171 0.0000
vt 0.1188 0.9171 0.0000
vt 0.7636 0.8223 0.0000
vt 0.7847 0.8223 0.0000
vt 0.7847 0.8479 0.0000
vt 0.7636 0.8479 0.0000
vt 0.9080 0.6373 0.0000
vt 0.9422 0.6373 0.0000
vt 0.9422 0.8022 0.0000
vt 0.9080 0.8022 0.0000
vt 0.7978 0.8022 0.0000
vt 0.7636 0.8022 0.0000
vt 0.7636 0.6373 0.0000
vt 0.7978 0.6373 0.0000
# 209 texture coords

o brick_exterior
g brick_exterior
usemtl brick_walls_baked
s off
f 1/1/1 2/2/1 3/3/1 
f 3/3/1 4/4/1 1/1/1 
f 4/5/2 3/6/2 5/7/2 
f 4/5/2 5/7/2 6/8/2 
f 4/5/2 6/8/2 7/9/2 
f 8/10/3 9/11/3 6/12/3 
f 8/10/3 6/12/3 5/13/3 
f 8/10/3 5/13/3 10/14/3 
f 8/15/4 10/16/4 2/17/4 
f 2/17/4 1/18/4 8/15/4 
f 11/19/1 12/20/1 13/21/1 
f 11/19/1 13/21/1 14/22/1 
f 11/19/1 14/22/1 15/23/1 
f 11/19/1 15/23/1 16/24/1 
f 16/25/2 15/26/2 17/27/2 
f 16/25/2 17/27/2 18/28/2 
f 19/29/2 20/30/2 21/31/2 
f 22/32/2 19/29/2 21/31/2 
f 22/32/5 21/31/5 21/31/5 
f 22/32/2 21/31/2 16/25/2 
f 18/28/2 22/32/2 16/25/2 
f 16/25/5 18/28/5 16/25/5 
f 23/33/3 24/34/3 25/35/3 
f 23/33/3 25/35/3 18/36/3 
f 23/33/3 18/36/3 17/37/3 
f 23/33/3 17/37/3 26/38/3 
f 27/39/4 23/40/4 26/41/4 
f 27/39/4 26/41/4 28/42/4 
f 27/39/4 28/42/4 14/43/4 
f 27/39/4 14/43/4 13/44/4 
f 27/39/4 13/44/4 29/45/4 
f 30/46/1 31/47/1 19/48/1 
f 30/46/1 19/48/1 22/49/1 
f 30/46/1 22/49/1 32/50/1 
f 30/46/1 32/50/1 33/51/1 
f 34/52/4 31/53/4 30/54/4 
f 30/54/4 35/55/4 34/52/4 
f 36/56/3 21/57/3 20/58/3 
f 36/56/3 20/58/3 34/59/3 
f 36/56/3 34/59/3 35/60/3 
f 36/56/3 35/60/3 37/61/3 
f 38/62/3 39/63/3 40/64/3 
f 38/62/3 40/64/3 41/65/3 
f 41/65/3 42/66/3 43/67/3 
f 38/62/3 41/65/3 43/67/3 
f 38/62/3 43/67/3 44/68/3 
f 38/62/3 44/68/3 45/69/3 
f 38/62/3 45/69/3 46/70/3 
f 47/71/2 43/72/2 42/73/2 
f 42/73/2 48/74/2 47/71/2 
f 49/75/6 50/76/6 51/77/6 
f 52/78/6 49/75/6 51/77/6 
f 53/79/2 52/78/2 51/77/2 
f 53/79/2 51/77/2 54/80/2 
f 50/76/7 49/75/7 55/81/7 
f 56/82/2 50/76/2 55/81/2 
f 54/80/2 56/82/2 55/81/2 
f 53/79/2 54/80/2 55/81/2 
f 56/83/1 57/84/1 58/85/1 
f 56/83/8 58/85/8 59/86/8 
f 56/83/8 59/86/8 50/87/8 
f 60/88/1 61/89/1 62/90/1 
f 60/88/1 62/90/1 63/91/1 
f 60/88/1 63/91/1 64/92/1 
f 65/93/1 66/94/1 67/95/1 
f 64/92/1 65/93/1 67/95/1 
f 64/92/9 67/95/9 68/96/9 
f 68/96/8 69/97/8 70/98/8 
f 68/96/1 70/98/1 71/99/1 
f 72/100/1 63/91/1 62/90/1 
f 72/100/1 62/90/1 73/101/1 
f 61/89/1 60/88/1 74/102/1 
f 75/103/1 61/89/1 74/102/1 
f 73/101/1 75/103/1 74/102/1 
f 72/100/1 73/101/1 74/102/1 
f 65/93/1 72/100/1 74/102/1 
f 65/93/1 74/102/1 76/104/1 
f 66/94/1 65/93/1 76/104/1 
f 69/97/1 66/94/1 76/104/1 
f 70/98/10 69/97/10 76/104/10 
f 77/105/1 70/98/1 76/104/1 
f 77/105/1 76/104/1 78/106/1 
f 79/107/8 77/105/8 78/106/8 
f 71/99/9 79/107/9 78/106/9 
f 68/96/9 71/99/9 78/106/9 
f 64/92/9 68/96/9 78/106/9 
f 60/88/1 64/92/1 78/106/1 
f 80/108/4 81/109/4 82/110/4 
f 82/110/4 83/111/4 84/112/4 
f 80/108/4 82/110/4 84/112/4 
f 80/108/4 84/112/4 85/113/4 
f 83/111/4 82/110/4 78/114/4 
f 86/115/4 83/111/4 78/114/4 
f 78/114/4 76/116/4 87/117/4 
f 86/115/4 78/114/4 87/117/4 
f 86/115/4 87/117/4 88/118/4 
f 85/113/4 86/115/4 88/118/4 
f 80/108/4 85/113/4 88/118/4 
f 89/119/1 90/120/1 91/121/1 
f 91/121/1 92/122/1 93/123/1 
f 89/119/1 91/121/1 93/123/1 
f 89/119/1 93/123/1 94/124/1 
f 92/122/1 91/121/1 82/125/1 
f 82/125/1 95/126/1 96/127/1 
f 92/122/1 82/125/1 96/127/1 
f 97/128/1 92/122/1 96/127/1 
f 94/124/1 97/128/1 96/127/1 
f 89/119/1 94/124/1 96/127/1 
f 98/129/4 99/130/4 100/131/4 
f 98/129/4 100/131/4 101/132/4 
f 98/129/4 101/132/4 102/133/4 
f 98/129/4 102/133/4 103/134/4 
f 104/135/4 101/132/4 100/131/4 
f 104/135/4 100/131/4 105/136/4 
f 106/137/4 99/130/4 107/138/4 
f 106/137/4 107/138/4 108/139/4 
f 99/130/4 98/129/4 91/140/4 
f 107/138/4 99/130/4 91/140/4 
f 109/141/4 107/138/4 91/140/4 
f 110/142/4 109/141/4 91/140/4 
f 110/142/4 91/140/4 90/143/4 
f 108/139/4 110/142/4 90/143/4 
f 106/137/4 108/139/4 90/143/4 
f 106/137/4 90/143/4 111/144/4 
f 105/136/4 106/137/4 111/144/4 
f 104/135/4 105/136/4 111/144/4 
f 103/134/4 104/135/4 111/144/4 
f 98/129/4 103/134/4 111/144/4 
f 112/145/3 98/146/3 113/147/3 
f 112/145/3 113/147/3 114/148/3 
f 112/145/3 114/148/3 115/149/3 
f 112/145/3 115/149/3 116/150/3 
f 112/145/3 116/150/3 117/151/3 
f 118/152/3 115/149/3 114/148/3 
f 118/152/3 114/148/3 119/153/3 
f 98/146/3 120/154/3 121/155/3 
f 113/147/3 98/146/3 121/155/3 
f 122/156/3 113/147/3 121/155/3 
f 122/156/3 121/155/3 123/157/3 
f 120/154/3 98/146/3 111/158/3 
f 124/159/3 120/154/3 111/158/3 
f 123/157/3 124/159/3 111/158/3 
f 122/156/3 123/157/3 111/158/3 
f 122/156/3 111/158/3 125/160/3 
f 119/153/3 122/156/3 125/160/3 
f 118/152/3 119/153/3 125/160/3 
f 117/151/3 118/152/3 125/160/3 
f 112/145/3 117/151/3 125/160/3 
f 126/161/3 127/162/3 128/163/3 
f 126/161/3 128/163/3 129/164/3 
f 130/165/3 126/161/3 129/164/3 
f 130/165/3 129/164/3 131/166/3 
f 132/167/3 130/165/3 131/166/3 
f 131/166/3 127/162/3 133/168/3 
f 131/166/3 133/168/3 134/169/3 
f 132/167/3 131/166/3 134/169/3 
f 132/167/3 134/169/3 135/170/3 
f 136/171/3 132/167/3 135/170/3 
f 136/171/3 135/170/3 137/172/3 
f 136/171/3 137/172/3 133/168/3 
f 136/171/3 133/168/3 127/162/3 
f 136/171/3 127/162/3 126/161/3 
f 138/173/3 136/171/3 126/161/3 
f 138/173/3 126/161/3 139/174/3 
f 138/173/3 139/174/3 140/175/3 
f 130/165/3 132/167/3 141/176/3 
f 140/175/3 130/165/3 141/176/3 
f 138/173/3 140/175/3 141/176/3 
f 142/177/2 143/178/2 144/179/2 
f 44/180/2 142/177/2 144/179/2 
f 44/180/2 144/179/2 145/181/2 
f 143/178/2 142/177/2 146/182/2 
f 142/177/2 44/180/2 138/183/2 
f 147/184/2 142/177/2 138/183/2 
f 148/185/2 147/184/2 138/183/2 
f 148/185/2 138/183/2 141/186/2 
f 146/182/2 148/185/2 141/186/2 
f 146/182/2 141/186/2 40/187/2 
f 143/178/2 146/182/2 40/187/2 
f 149/188/2 143/178/2 40/187/2 
f 149/188/2 40/187/2 150/189/2 
f 145/181/2 149/188/2 150/189/2 
f 44/180/2 145/181/2 150/189/2 
f 29/190/1 151/191/1 152/192/1 
f 152/192/1 27/193/1 29/190/1 
f 37/194/4 12/195/4 11/196/4 
f 11/196/4 36/197/4 37/194/4 
f 153/198/3 154/199/3 155/200/3 
f 155/200/3 156/201/3 153/198/3 
f 60/202/2 59/203/2 58/204/2 
f 58/204/2 74/205/2 60/202/2 
f 136/206/11 112/207/11 125/208/11 
f 125/208/11 132/209/11 136/206/11 
# 193 faces

