{
  "accessors": {
    "accessor_index_0": {
      "bufferView": "bufferView_1",
      "byteOffset": 0,
      "byteStride": 0,
      "componentType": 5123,
      "count": 5910,
      "type": "SCALAR",
      "min": [
        0
      ],
      "max": [
        3164
      ]
    },
    "accessor_position": {
      "bufferView": "bufferView_0",
      "byteOffset": 0,
      "byteStride": 0,
      "componentType": 5126,
      "count": 3165,
      "min": [
        -2.0903000831604004,
        -0.10999999940395355,
        -10.025799751281738
      ],
      "max": [
        20.24970054626465,
        6.187300205230713,
        2.274199962615967
      ],
      "type": "VEC3"
    },
    "accessor_normal": {
      "bufferView": "bufferView_0",
      "byteOffset": 37980,
      "byteStride": 0,
      "componentType": 5126,
      "count": 3165,
      "type": "VEC3",
      "min": [
        null,
        null,
        null
      ],
      "max": [
        null,
        null,
        null
      ]
    },
    "accessor_uv": {
      "bufferView": "bufferView_0",
      "byteOffset": 75960,
      "byteStride": 0,
      "componentType": 5126,
      "count": 3165,
      "type": "VEC2",
      "min": [
        0.009999999776482582,
        0.01640000008046627
      ],
      "max": [
        0.9900000095367432,
        0.9900000095367432
      ]
    },
    "accessor_mesh_Noosa-walls_0_AO": {
      "bufferView": "bufferView_2",
      "byteOffset": 0,
      "componentType": 5126,
      "count": 3165,
      "type": "SCALAR",
      "byteStride": 0
    }
  },
  "asset": {
    "generator": "OBJ2GLTF",
    "premultipliedAlpha": true,
    "profile": {
      "api": "WebGL",
      "version": "1.0"
    },
    "version": "1.0"
  },
  "buffers": {
    "buffer_0": {
      "type": "arraybuffer",
      "byteLength": 113100,
      "uri": "data:application/octet-stream;base64,"
    },
    "aoBuffer": {
      "type": "arraybuffer",
      "byteLength": 12660,
      "uri": "data:application/octet-stream;base64,"
    }
  },
  "bufferViews": {
    "bufferView_0": {
      "buffer": "buffer_0",
      "byteLength": 101280,
      "byteOffset": 0,
      "target": 34962
    },
    "bufferView_1": {
      "buffer": "buffer_0",
      "byteLength": 11820,
      "byteOffset": 101280,
      "target": 34963
    },
    "bufferView_2": {
      "buffer": "aoBuffer",
      "byteLength": 12660,
      "byteOffset": 0,
      "target": 34962
    }
  },
  "images": {
    "Noosa-walls": {
      "uri": "data:image/png;base64,"
    }
  },
  "materials": {
    "material_01___Default": {
      "name": "01___Default",
      "extensions": {},
      "values": {
        "ambient": [
          0,
          0,
          0,
          1
        ],
        "diffuse": "texture_Noosa-walls",
        "emission": [
          0,
          0,
          0,
          1
        ],
        "specular": [
          0,
          0,
          0,
          1
        ],
        "shininess": 10,
        "transparency": 1
      },
      "technique": "technique0"
    }
  },
  "meshes": {
    "mesh_Noosa-walls": {
      "name": "Noosa-walls",
      "primitives": [
        {
          "attributes": {
            "POSITION": "accessor_position",
            "NORMAL": "accessor_normal",
            "TEXCOORD_0": "accessor_uv",
            "_OCCLUSION": "accessor_mesh_Noosa-walls_0_AO"
          },
          "indices": "accessor_index_0",
          "material": "material_01___Default",
          "mode": 4
        }
      ]
    }
  },
  "nodes": {
    "rootNode": {
      "children": [],
      "meshes": [
        "mesh_Noosa-walls"
      ],
      "matrix": [
        1,
        0,
        0,
        0,
        0,
        1,
        0,
        0,
        0,
        0,
        1,
        0,
        0,
        0,
        0,
        1
      ]
    }
  },
  "samplers": {
    "sampler_0": {
      "magFilter": 9729,
      "minFilter": 9986,
      "wrapS": 10497,
      "wrapT": 10497
    }
  },
  "scene": "scene_Noosa-walls",
  "scenes": {
    "scene_Noosa-walls": {
      "nodes": [
        "rootNode"
      ]
    }
  },
  "textures": {
    "texture_Noosa-walls": {
      "format": 6407,
      "internalFormat": 6407,
      "sampler": "sampler_0",
      "source": "Noosa-walls",
      "target": 3553,
      "type": 5121
    }
  },
  "extensionsUsed": [],
  "animations": {},
  "cameras": {},
  "techniques": {
    "technique0": {
      "attributes": {
        "a_position": "position",
        "a_normal": "normal",
        "a_texcoord_0": "texcoord_0",
        "a_ambientOcclusion": "vertex_ao"
      },
      "parameters": {
        "modelViewMatrix": {
          "semantic": "MODELVIEW",
          "type": 35676
        },
        "projectionMatrix": {
          "semantic": "PROJECTION",
          "type": 35676
        },
        "normalMatrix": {
          "semantic": "MODELVIEWINVERSETRANSPOSE",
          "type": 35675
        },
        "ambient": {
          "type": 35666
        },
        "diffuse": {
          "type": 35678
        },
        "emission": {
          "type": 35666
        },
        "specular": {
          "type": 35666
        },
        "shininess": {
          "type": 5126
        },
        "transparency": {
          "type": 5126
        },
        "position": {
          "semantic": "POSITION",
          "type": 35665
        },
        "normal": {
          "semantic": "NORMAL",
          "type": 35665
        },
        "texcoord_0": {
          "semantic": "TEXCOORD_0",
          "type": 35664
        },
        "vertex_ao": {
          "semantic": "_OCCLUSION",
          "type": 5126
        }
      },
      "program": "program0",
      "states": {
        "enable": [
          2884,
          2929
        ]
      },
      "uniforms": {
        "u_modelViewMatrix": "modelViewMatrix",
        "u_projectionMatrix": "projectionMatrix",
        "u_normalMatrix": "normalMatrix",
        "u_ambient": "ambient",
        "u_diffuse": "diffuse",
        "u_emission": "emission",
        "u_specular": "specular",
        "u_shininess": "shininess",
        "u_transparency": "transparency"
      }
    }
  },
  "programs": {
    "program0": {
      "attributes": [
        "a_position",
        "a_normal",
        "a_texcoord_0",
        "a_ambientOcclusion"
      ],
      "fragmentShader": "fragmentShader0",
      "vertexShader": "vertexShader0"
    }
  },
  "shaders": {
    "vertexShader0": {
      "type": 35633,
      "uri": "data:text/plain;base64,"
    },
    "fragmentShader0": {
      "type": 35632,
      "uri": "data:text/plain;base64,"
    }
  },
  "skins": {},
  "extensions": {}
}
