# 3ds Max Wavefront OBJ Exporter v0.97b - (c)2007 guruware
# File Created: 05.12.2016 22:04:02

mtllib shop-walls.mtl

#
# object Floor_Generic_Floor___400mm__322617_
#

v  292.4371 -40.0000 319.0066
v  -367.5628 -40.0000 319.0066
v  -367.5628 -40.0000 -680.9933
v  292.4371 -40.0000 -680.9933
v  -367.5628 0.0000 -680.9933
v  -367.5628 0.0000 319.0066
v  292.4371 0.0000 319.0066
v  292.4371 0.0000 -680.9933
# 8 vertices

vn 0.0000 -1.0000 -0.0000
vn 0.0000 1.0000 -0.0000
vn 1.0000 0.0000 0.0000
vn 0.0000 0.0000 1.0000
vn -1.0000 0.0000 -0.0000
vn 0.0000 0.0000 -1.0000
# 6 vertex normals

vt -4.2007 -0.3505 0.0000
vt -25.8543 -0.3505 0.0000
vt -25.8543 -33.1589 0.0000
vt -4.2007 -33.1589 0.0000
vt -25.8543 33.1589 0.0000
vt -25.8543 0.3505 0.0000
vt -4.2007 0.3505 0.0000
vt -4.2007 33.1589 0.0000
vt 33.1589 -1.3123 0.0000
vt 33.1589 0.0000 0.0000
vt 0.3505 0.0000 0.0000
vt 0.3505 -1.3123 0.0000
vt -4.2007 -1.3123 0.0000
vt -4.2007 0.0000 0.0000
vt -25.8543 0.0000 0.0000
vt -25.8543 -1.3123 0.0000
vt -0.3505 -1.3123 0.0000
vt -0.3505 0.0000 0.0000
vt -33.1589 0.0000 0.0000
vt -33.1589 -1.3123 0.0000
vt -25.8543 1.3123 0.0000
vt -25.8543 -0.0000 0.0000
vt -4.2007 -0.0000 0.0000
vt -4.2007 1.3123 0.0000
# 24 texture coords

g Floor_Generic_Floor___400mm__322617_
usemtl wire_204204204
s off
f 1/1/1 2/2/1 3/3/1 4/4/1 
f 5/5/2 6/6/2 7/7/2 8/8/2 
f 4/9/3 8/10/3 7/11/3 1/12/3 
f 1/13/4 7/14/4 6/15/4 2/16/4 
f 2/17/5 6/18/5 5/19/5 3/20/5 
f 3/21/6 5/22/6 8/23/6 4/24/6 
# 6 polygons

#
# object Basic_Wall_Generic___200mm__322698_
#

v  -347.5628 380.0000 -660.9933
v  -367.5628 -0.0000 -660.9933
v  -347.5628 0.0000 -660.9933
v  272.4371 380.0000 -660.9933
v  272.4371 0.0000 -660.9933
v  292.4371 0.0000 -660.9933
v  292.4371 380.0000 -660.9933
v  -367.5628 380.0000 -660.9933
v  -367.5628 380.0000 -680.9933
v  292.4371 380.0000 -680.9933
v  292.4371 0.0000 -680.9933
v  -367.5628 0.0000 -680.9933
# 12 vertices

vn -0.0000 0.0000 1.0000
vn 0.0000 0.0000 -1.0000
vn 0.0000 -1.0000 -0.0000
vn 0.0000 1.0000 -0.0000
vn -1.0000 0.0000 -0.0000
vn 1.0000 0.0000 0.0000
# 6 vertex normals

vt 0.3281 12.4672 0.0000
vt -0.3281 -0.0000 0.0000
vt 0.3281 0.0000 0.0000
vt 20.6693 12.4672 0.0000
vt 20.6693 0.0000 0.0000
vt 21.3255 0.0000 0.0000
vt 21.3255 12.4672 0.0000
vt -0.3281 12.4672 0.0000
vt -21.3255 12.4672 0.0000
vt -21.3255 0.0000 0.0000
vt 21.3255 -0.3281 0.0000
vt 21.3255 0.3281 0.0000
vt 20.6693 0.3281 0.0000
vt 0.3281 0.3281 0.0000
vt -0.3281 -0.3281 0.0000
vt -0.3281 0.3281 0.0000
vt 20.6693 -0.3281 0.0000
vt 0.3281 -0.3281 0.0000
vt -32.1522 12.4672 0.0000
vt -32.8084 12.4672 0.0000
vt -32.8084 0.0000 0.0000
vt -32.1522 0.0000 0.0000
vt -0.3281 0.0000 0.0000
# 23 texture coords

g Basic_Wall_Generic___200mm__322698_
usemtl wire_204204204
s off
f 9/25/7 10/26/7 11/27/7 12/28/7 
f 12/28/7 11/27/7 13/29/7 14/30/7 
f 15/31/7 12/28/7 14/30/7 
f 9/25/7 16/32/7 10/26/7 
f 17/25/8 18/33/8 19/34/8 20/27/8 
f 19/35/9 14/36/9 13/37/9 11/38/9 
f 20/39/9 19/35/9 11/38/9 10/40/9 
f 18/36/10 17/40/10 12/41/10 15/35/10 
f 9/42/10 12/41/10 17/40/10 16/39/10 
f 16/43/11 17/44/11 20/45/11 10/46/11 
f 14/47/12 19/27/12 18/25/12 15/32/12 
# 9 polygons - 2 triangles

#
# object Floor_Generic_Floor___200__323099_
#

v  -367.5628 380.0000 -680.9933
v  292.4371 380.0000 -680.9933
v  292.4371 380.0000 319.0066
v  -367.5628 380.0000 319.0066
v  -367.5628 400.0000 -680.9933
v  -367.5628 400.0000 319.0066
v  292.4371 400.0000 319.0066
v  292.4371 400.0000 -680.9933
# 8 vertices

vn 0.0000 -1.0000 -0.0000
vn 0.0000 1.0000 -0.0000
vn 1.0000 0.0000 -0.0000
vn 0.0000 0.0000 1.0000
vn -1.0000 0.0000 -0.0000
vn -0.0000 0.0000 -1.0000
# 6 vertex normals

vt -12.0591 -22.3423 0.0000
vt 9.5944 -22.3423 0.0000
vt 9.5944 10.4661 0.0000
vt -12.0591 10.4661 0.0000
vt -12.0591 22.3423 0.0000
vt -12.0591 -10.4661 0.0000
vt 9.5944 -10.4661 0.0000
vt 9.5944 22.3423 0.0000
vt -10.4661 -0.6562 0.0000
vt 22.3423 -0.6562 0.0000
vt 22.3423 0.0000 0.0000
vt -10.4661 0.0000 0.0000
vt -12.0591 -0.6562 0.0000
vt 9.5944 -0.6562 0.0000
vt 9.5944 0.0000 0.0000
vt -12.0591 0.0000 0.0000
vt -22.3423 -0.6562 0.0000
vt 10.4661 -0.6562 0.0000
vt 10.4661 0.0000 0.0000
vt -22.3423 0.0000 0.0000
vt 9.5944 0.6562 0.0000
vt -12.0591 0.6562 0.0000
vt -12.0591 -0.0000 0.0000
vt 9.5944 -0.0000 0.0000
# 24 texture coords

g Floor_Generic_Floor___200__323099_
usemtl wire_204204204
s off
f 21/48/13 22/49/13 23/50/13 24/51/13 
f 25/52/14 26/53/14 27/54/14 28/55/14 
f 23/56/15 22/57/15 28/58/15 27/59/15 
f 24/60/16 23/61/16 27/62/16 26/63/16 
f 21/64/17 24/65/17 26/66/17 25/67/17 
f 22/68/18 21/69/18 25/70/18 28/71/18 
# 6 polygons

#
# object Basic_Wall_Generic___200mm__324268_
#

v  52.4372 380.0000 299.0066
v  52.4372 210.0000 299.0066
v  -127.5628 210.0000 299.0066
v  -127.5628 380.0000 299.0066
v  -127.5628 380.0000 319.0066
v  -127.5628 210.0000 319.0066
v  52.4372 210.0000 319.0066
v  52.4372 380.0000 319.0066
# 8 vertices

vn 0.0000 0.0000 -1.0000
vn -0.0000 0.0000 1.0000
vn -1.0000 0.0000 -0.0000
vn 1.0000 0.0000 0.0000
vn 0.0000 1.0000 -0.0000
vn 0.0000 -1.0000 -0.0000
# 6 vertex normals

vt -0.0000 12.4672 0.0000
vt -0.0000 6.8898 0.0000
vt 5.9055 6.8898 0.0000
vt 5.9055 12.4672 0.0000
vt -5.9055 12.4672 0.0000
vt -5.9055 6.8898 0.0000
vt 0.0000 6.8898 0.0000
vt 0.0000 12.4672 0.0000
vt -0.3281 12.4672 0.0000
vt -0.3281 6.8898 0.0000
vt 0.3281 6.8898 0.0000
vt 0.3281 12.4672 0.0000
vt 5.9055 -0.3281 0.0000
vt 5.9055 0.3281 0.0000
vt 0.0000 0.3281 0.0000
vt 0.0000 -0.3281 0.0000
vt -0.0000 -0.3281 0.0000
vt -0.0000 0.3281 0.0000
# 18 texture coords

g Basic_Wall_Generic___200mm__324268_
usemtl wire_204204204
s off
f 29/72/19 30/73/19 31/74/19 32/75/19 
f 33/76/20 34/77/20 35/78/20 36/79/20 
f 32/80/21 31/81/21 34/82/21 33/83/21 
f 36/80/22 35/81/22 30/82/22 29/83/22 
f 32/84/23 33/85/23 36/86/23 29/87/23 
f 35/88/24 34/84/24 31/85/24 30/89/24 
# 6 polygons

#
# object Basic_Wall_Generic___200mm__368621_
#

v  -347.5628 -0.0000 319.0066
v  -347.5628 -0.0000 -475.2434
v  -347.5628 213.4000 -475.2434
v  -347.5628 380.0000 319.0066
v  -347.5628 380.0000 -660.9933
v  -347.5628 213.4000 -566.7433
v  -347.5628 0.0000 -660.9933
v  -347.5628 0.0000 -566.7433
v  -367.5628 -0.0000 -660.9933
v  -367.5628 0.0000 -566.7433
v  -367.5628 213.4000 -566.7433
v  -367.5628 380.0000 -660.9933
v  -367.5628 213.4000 -475.2434
v  -367.5628 380.0000 319.0066
v  -367.5628 0.0000 319.0066
v  -367.5628 0.0000 -475.2434
# 16 vertices

vn 1.0000 0.0000 0.0000
vn -1.0000 0.0000 -0.0000
vn 0.0000 -1.0000 -0.0000
vn -0.0000 0.0000 1.0000
vn 0.0000 0.0000 -1.0000
vn 0.0000 1.0000 -0.0000
# 6 vertex normals

vt -0.0000 -0.0000 0.0000
vt 26.0581 -0.0000 0.0000
vt 26.0581 7.0013 0.0000
vt 0.0000 12.4672 0.0000
vt 32.1522 12.4672 0.0000
vt 29.0600 7.0013 0.0000
vt 32.1522 0.0000 0.0000
vt 29.0600 0.0000 0.0000
vt -32.1522 -0.0000 0.0000
vt -29.0600 0.0000 0.0000
vt -29.0600 7.0013 0.0000
vt -32.1522 12.4672 0.0000
vt -26.0581 7.0013 0.0000
vt 0.0000 0.0000 0.0000
vt -26.0581 0.0000 0.0000
vt 32.1522 0.3281 0.0000
vt 29.0600 0.3281 0.0000
vt 29.0600 -0.3281 0.0000
vt 32.1522 -0.3281 0.0000
vt 26.0581 0.3281 0.0000
vt -0.0000 0.3281 0.0000
vt -0.0000 -0.3281 0.0000
vt 26.0581 -0.3281 0.0000
vt 0.3281 12.4672 0.0000
vt -0.3281 12.4672 0.0000
vt -0.3281 -0.0000 0.0000
vt 0.3281 -0.0000 0.0000
vt -0.3281 0.0000 0.0000
vt 0.3281 0.0000 0.0000
vt 0.3281 7.0013 0.0000
vt -0.3281 7.0013 0.0000
# 31 texture coords

g Basic_Wall_Generic___200mm__368621_
usemtl wire_204204204
s off
f 37/90/25 38/91/25 39/92/25 40/93/25 
f 41/94/25 40/93/25 39/92/25 42/95/25 
f 43/96/25 41/94/25 42/95/25 44/97/25 
f 45/98/26 46/99/26 47/100/26 48/101/26 
f 48/101/26 47/100/26 49/102/26 50/93/26 
f 51/103/26 50/93/26 49/102/26 52/104/26 
f 43/105/27 44/106/27 46/107/27 45/108/27 
f 38/109/27 37/110/27 51/111/27 52/112/27 
f 40/113/28 50/114/28 51/115/28 37/116/28 
f 43/117/29 45/118/29 48/113/29 41/114/29 
f 41/108/30 48/105/30 50/110/30 40/111/30 
f 38/117/29 52/118/29 49/119/29 39/120/29 
f 39/109/27 49/112/27 47/107/27 42/106/27 
f 42/119/28 47/120/28 46/117/28 44/118/28 
# 14 polygons

#
# object Basic_Wall_Generic___375mm__368629_
#

v  -127.5628 210.0000 319.0066
v  -167.5628 380.0000 319.0066
v  -167.5628 -0.0000 319.0066
v  -127.5628 0.0000 319.0066
v  -127.5628 380.0000 319.0066
v  -167.5628 380.0000 281.5066
v  -127.5628 380.0000 281.5066
v  -127.5628 0.0000 281.5066
v  -167.5628 0.0000 281.5066
v  -127.5628 380.0000 299.0066
# 10 vertices

vn 0.0000 0.0000 1.0000
vn 0.0000 0.0000 -1.0000
vn 0.0000 -1.0000 -0.0000
vn 1.0000 0.0000 -0.0000
vn -1.0000 0.0000 -0.0000
vn 0.0000 1.0000 -0.0000
# 6 vertex normals

vt 1.3123 6.8898 0.0000
vt 0.0000 12.4672 0.0000
vt 0.0000 -0.0000 0.0000
vt 1.3123 0.0000 0.0000
vt 1.3123 12.4672 0.0000
vt -0.0000 12.4672 0.0000
vt -1.3123 12.4672 0.0000
vt -1.3123 0.0000 0.0000
vt -0.0000 0.0000 0.0000
vt 0.0000 0.6152 0.0000
vt 0.0000 -0.6152 0.0000
vt 1.3123 -0.6152 0.0000
vt 1.3123 0.6152 0.0000
vt -0.6152 6.8898 0.0000
vt -0.6152 -0.0000 0.0000
vt 0.6152 0.0000 0.0000
vt 0.6152 12.4672 0.0000
vt 0.0410 12.4672 0.0000
vt -0.6152 12.4672 0.0000
vt 0.6152 -0.0000 0.0000
vt 1.3123 0.0410 0.0000
vt -0.0000 0.6152 0.0000
vt -0.0000 -0.6152 0.0000
# 23 texture coords

g Basic_Wall_Generic___375mm__368629_
usemtl wire_204204204
s off
f 53/121/31 54/122/31 55/123/31 56/124/31 
f 53/121/31 57/125/31 54/122/31 
f 58/126/32 59/127/32 60/128/32 61/129/32 
f 55/130/33 61/131/33 60/132/33 56/133/33 
f 53/134/34 56/135/34 60/136/34 59/137/34 
f 53/134/34 59/137/34 62/138/34 57/139/34 
f 54/137/35 58/139/35 61/135/35 55/140/35 
f 62/141/36 59/133/36 58/142/36 54/143/36 
f 54/143/36 57/132/36 62/141/36 
# 7 polygons - 2 triangles

#
# object Basic_Wall_Generic___200mm__368647_
#

v  272.4371 0.0000 319.0066
v  272.4371 380.0000 319.0066
v  272.4371 380.0000 -660.9933
v  272.4371 0.0000 -660.9933
v  292.4371 380.0000 -660.9933
v  292.4371 380.0000 319.0066
v  292.4371 0.0000 319.0066
v  292.4371 0.0000 -660.9933
# 8 vertices

vn -1.0000 0.0000 -0.0000
vn 1.0000 0.0000 0.0000
vn 0.0000 -1.0000 -0.0000
vn 0.0000 0.0000 1.0000
vn 0.0000 0.0000 -1.0000
vn 0.0000 1.0000 -0.0000
# 6 vertex normals

vt 32.4803 0.0000 0.0000
vt 32.4803 12.4672 0.0000
vt 0.3281 12.4672 0.0000
vt 0.3281 0.0000 0.0000
vt -0.3281 12.4672 0.0000
vt -32.4803 12.4672 0.0000
vt -32.4803 0.0000 0.0000
vt -0.3281 0.0000 0.0000
vt 0.3281 0.3281 0.0000
vt 0.3281 -0.3281 0.0000
vt 32.4803 -0.3281 0.0000
vt 32.4803 0.3281 0.0000
# 12 texture coords

g Basic_Wall_Generic___200mm__368647_
usemtl wire_204204204
s off
f 63/144/37 64/145/37 65/146/37 66/147/37 
f 67/148/38 68/149/38 69/150/38 70/151/38 
f 66/152/39 70/153/39 69/154/39 63/155/39 
f 63/151/40 69/147/40 68/146/40 64/148/40 
f 65/146/41 67/148/41 70/151/41 66/147/41 
f 64/154/42 68/155/42 67/152/42 65/153/42 
# 6 polygons

#
# object Basic_Wall_Generic___375mm__368655_
#

v  52.4372 0.0000 281.5066
v  52.4372 380.0000 281.5066
v  92.4372 380.0000 281.5066
v  92.4372 0.0000 281.5066
v  92.4372 0.0000 319.0066
v  92.4372 380.0000 319.0066
v  52.4372 210.0000 319.0066
v  52.4372 -0.0000 319.0066
v  52.4372 380.0000 319.0066
v  52.4372 380.0000 299.0066
# 10 vertices

vn 0.0000 0.0000 -1.0000
vn 0.0000 0.0000 1.0000
vn 0.0000 -1.0000 -0.0000
vn -1.0000 0.0000 -0.0000
vn 1.0000 0.0000 -0.0000
vn 0.0000 1.0000 -0.0000
# 6 vertex normals

vt 1.3123 0.0000 0.0000
vt 1.3123 12.4672 0.0000
vt 0.0000 12.4672 0.0000
vt 0.0000 0.0000 0.0000
vt -0.0000 0.0000 0.0000
vt -0.0000 12.4672 0.0000
vt -1.3123 6.8898 0.0000
vt -1.3123 -0.0000 0.0000
vt -1.3123 12.4672 0.0000
vt 0.0000 0.6152 0.0000
vt 0.0000 -0.6152 0.0000
vt 1.3123 -0.6152 0.0000
vt 1.3123 0.6152 0.0000
vt 0.6152 6.8898 0.0000
vt -0.0410 12.4672 0.0000
vt -0.6152 12.4672 0.0000
vt -0.6152 -0.0000 0.0000
vt 0.6152 0.0000 0.0000
vt 0.6152 12.4672 0.0000
vt 0.6152 -0.0000 0.0000
vt 1.3123 -0.0410 0.0000
# 21 texture coords

g Basic_Wall_Generic___375mm__368655_
usemtl wire_204204204
s off
f 71/156/43 72/157/43 73/158/43 74/159/43 
f 75/160/44 76/161/44 77/162/44 78/163/44 
f 77/162/44 76/161/44 79/164/44 
f 74/165/45 75/166/45 78/167/45 71/168/45 
f 77/169/46 80/170/46 72/171/46 71/172/46 
f 78/173/46 77/169/46 71/172/46 
f 77/169/46 79/174/46 80/170/46 
f 73/174/47 76/171/47 75/172/47 74/175/47 
f 73/166/48 72/167/48 80/176/48 76/165/48 
f 79/168/48 76/165/48 80/176/48 
# 6 polygons - 4 triangles

#
# object M_Single_Flush_0915_x_2134mm__371596_
#

v  -345.0628 213.4000 -566.7433
v  -345.0628 0.0000 -574.3433
v  -345.0628 221.0000 -574.3433
v  -345.0628 213.4000 -475.2433
v  -345.0628 221.0000 -467.6433
v  -345.0628 0.0000 -467.6433
v  -345.0628 0.0000 -475.2433
v  -345.0628 0.0000 -566.7433
v  -347.5628 213.4000 -475.2433
v  -347.5628 0.0000 -467.6433
v  -347.5628 221.0000 -467.6433
v  -347.5628 213.4000 -566.7433
v  -347.5628 221.0000 -574.3433
v  -347.5628 0.0000 -574.3433
v  -347.5628 0.0000 -566.7433
v  -347.5628 0.0000 -475.2433
v  -370.0628 213.4000 -475.2433
v  -370.0628 0.0000 -467.6433
v  -370.0628 221.0000 -467.6433
v  -370.0628 213.4000 -566.7433
v  -370.0628 221.0000 -574.3433
v  -370.0628 0.0000 -574.3433
v  -370.0628 0.0000 -566.7433
v  -370.0628 0.0000 -475.2433
v  -367.5628 213.4000 -566.7433
v  -367.5628 0.0000 -574.3433
v  -367.5628 221.0000 -574.3433
v  -367.5628 213.4000 -475.2433
v  -367.5628 221.0000 -467.6433
v  -367.5628 0.0000 -467.6433
v  -367.5628 0.0000 -475.2433
v  -367.5628 0.0000 -566.7433
v  -352.6628 213.4000 -566.7433
v  -352.6628 0.0000 -566.7433
v  -352.6628 0.0000 -475.2433
v  -352.6628 213.4000 -475.2433
# 36 vertices

vn 1.0000 0.0000 0.0000
vn -1.0000 0.0000 -0.0000
vn 0.0000 1.0000 -0.0000
vn -0.0000 0.0000 1.0000
vn 0.0000 -1.0000 -0.0000
vn 0.0000 0.0000 -1.0000
# 6 vertex normals

vt -3.4990 7.0013 0.0000
vt -3.2497 0.0000 0.0000
vt -3.2497 7.2507 0.0000
vt -6.5010 7.0013 0.0000
vt -6.7503 7.2507 0.0000
vt -6.7503 0.0000 0.0000
vt -6.5010 0.0000 0.0000
vt -3.4990 0.0000 0.0000
vt 6.5010 7.0013 0.0000
vt 6.7503 0.0000 0.0000
vt 6.7503 7.2507 0.0000
vt 3.4990 7.0013 0.0000
vt 3.2497 7.2507 0.0000
vt 3.2497 0.0000 0.0000
vt 3.4990 0.0000 0.0000
vt 6.5010 0.0000 0.0000
vt -5.2497 -0.0820 0.0000
vt -5.2497 0.0000 0.0000
vt -8.7503 0.0000 0.0000
vt -8.7503 -0.0820 0.0000
vt 0.0820 7.2507 0.0000
vt -0.0000 7.2507 0.0000
vt -0.0000 0.0000 0.0000
vt 0.0820 0.0000 0.0000
vt 8.7503 -0.0820 0.0000
vt 8.7503 0.0000 0.0000
vt 8.5010 0.0000 0.0000
vt 8.5010 -0.0820 0.0000
vt -0.0820 0.0000 0.0000
vt 0.0000 0.0000 0.0000
vt 0.0000 7.0013 0.0000
vt -0.0820 7.0013 0.0000
vt 5.4990 0.0000 0.0000
vt 5.4990 -0.0820 0.0000
vt 0.0820 7.0013 0.0000
vt -0.0000 7.0013 0.0000
vt 5.2497 0.0000 0.0000
vt 5.2497 -0.0820 0.0000
vt 0.0000 7.2507 0.0000
vt -0.0820 7.2507 0.0000
vt -4.7503 0.0820 0.0000
vt -4.7503 -0.0000 0.0000
vt -1.2497 -0.0000 0.0000
vt -1.2497 0.0820 0.0000
vt 1.2497 0.0820 0.0000
vt 1.2497 -0.0000 0.0000
vt 1.4990 -0.0000 0.0000
vt 1.4990 0.0820 0.0000
vt 4.5010 -0.0000 0.0000
vt 4.5010 0.0820 0.0000
vt 4.7503 -0.0000 0.0000
vt 4.7503 0.0820 0.0000
vt -1.5010 7.0013 0.0000
vt -1.5010 0.0000 0.0000
vt 1.5010 0.0000 0.0000
vt 1.5010 7.0013 0.0000
vt 0.4990 -0.1608 0.0000
vt 0.4990 -0.3281 0.0000
vt 3.5010 -0.3281 0.0000
vt 3.5010 -0.1608 0.0000
vt -0.1608 7.0013 0.0000
vt -0.3281 7.0013 0.0000
vt -0.3281 0.0000 0.0000
vt -0.1608 0.0000 0.0000
vt -3.5010 -0.1608 0.0000
vt -3.5010 -0.3281 0.0000
vt -0.4990 -0.3281 0.0000
vt -0.4990 -0.1608 0.0000
vt 0.1608 0.0000 0.0000
vt 0.3281 0.0000 0.0000
vt 0.3281 7.0013 0.0000
vt 0.1608 7.0013 0.0000
# 72 texture coords

g M_Single_Flush_0915_x_2134mm__371596_
usemtl wire_204204204
s off
f 81/177/49 82/178/49 83/179/49 84/180/49 
f 84/180/49 83/179/49 85/181/49 86/182/49 
f 86/182/49 87/183/49 84/180/49 
f 88/184/49 82/178/49 81/177/49 
f 89/185/50 90/186/50 91/187/50 92/188/50 
f 92/188/50 91/187/50 93/189/50 94/190/50 
f 94/190/50 95/191/50 92/188/50 
f 96/192/50 90/186/50 89/185/50 
f 83/193/51 93/194/51 91/195/51 85/196/51 
f 85/197/52 91/198/52 90/199/52 86/200/52 
f 86/201/53 90/202/53 96/203/53 87/204/53 
f 87/205/54 96/206/54 89/207/54 84/208/54 
f 84/204/53 89/203/53 92/209/53 81/210/53 
f 81/211/52 92/212/52 95/199/52 88/200/52 
f 88/210/53 95/209/53 94/213/53 82/214/53 
f 82/205/54 94/206/54 93/215/54 83/216/54 
f 97/185/50 98/186/50 99/187/50 100/188/50 
f 100/188/50 99/187/50 101/189/50 102/190/50 
f 102/190/50 103/191/50 100/188/50 
f 104/192/50 98/186/50 97/185/50 
f 105/177/49 106/178/49 107/179/49 108/180/49 
f 108/180/49 107/179/49 109/181/49 110/182/49 
f 110/182/49 111/183/49 108/180/49 
f 112/184/49 106/178/49 105/177/49 
f 99/217/51 109/218/51 107/219/51 101/220/51 
f 101/197/54 107/198/54 106/199/54 102/200/54 
f 102/221/53 106/222/53 112/223/53 103/224/53 
f 103/205/52 112/206/52 105/207/52 100/208/52 
f 100/224/53 105/223/53 108/225/53 97/226/53 
f 97/211/54 108/212/54 111/199/54 104/200/54 
f 104/226/53 111/225/53 110/227/53 98/228/53 
f 98/205/52 110/206/52 109/215/52 99/216/52 
f 113/229/50 114/230/50 115/231/50 116/232/50 
f 96/230/49 95/231/49 92/232/49 89/229/49 
f 116/233/51 89/234/51 92/235/51 113/236/51 
f 113/237/54 92/238/54 95/239/54 114/240/54 
f 114/241/53 95/242/53 96/243/53 115/244/53 
f 115/245/52 96/246/52 89/247/52 116/248/52 
# 30 polygons - 8 triangles

