# 3ds Max Wavefront OBJ Exporter v0.97b - (c)2007 guruware
# File Created: 06.12.2016 20:17:03

mtllib shop-walls.mtl

#
# object Basic_Wall_Generic___200mm__322698_
#

v  -17.3781 19.0000 -33.0497
v  -18.3781 -0.0000 -33.0497
v  -17.3781 0.0000 -33.0497
v  13.6219 19.0000 -33.0497
v  13.6219 0.0000 -33.0497
v  14.6219 0.0000 -33.0497
v  14.6219 19.0000 -33.0497
v  -18.3781 19.0000 -33.0497
v  -18.3781 19.0000 -34.0497
v  14.6219 19.0000 -34.0497
v  14.6219 0.0000 -34.0497
v  -18.3781 0.0000 -34.0497
# 12 vertices

vn -0.0000 0.0000 1.0000
vn 0.0000 0.0000 -1.0000
vn 0.0000 -1.0000 -0.0000
vn 0.0000 1.0000 -0.0000
vn -1.0000 0.0000 -0.0000
vn 1.0000 0.0000 0.0000
# 6 vertex normals

vt 0.3281 12.4672 0.0000
vt -0.3281 -0.0000 0.0000
vt 0.3281 0.0000 0.0000
vt 20.6693 12.4672 0.0000
vt 20.6693 0.0000 0.0000
vt 21.3255 0.0000 0.0000
vt 21.3255 12.4672 0.0000
vt -0.3281 12.4672 0.0000
vt -21.3255 12.4672 0.0000
vt -21.3255 0.0000 0.0000
vt 21.3255 -0.3281 0.0000
vt 21.3255 0.3281 0.0000
vt 20.6693 0.3281 0.0000
vt 0.3281 0.3281 0.0000
vt -0.3281 -0.3281 0.0000
vt -0.3281 0.3281 0.0000
vt 20.6693 -0.3281 0.0000
vt 0.3281 -0.3281 0.0000
vt -32.1522 12.4672 0.0000
vt -32.8084 12.4672 0.0000
vt -32.8084 0.0000 0.0000
vt -32.1522 0.0000 0.0000
vt -0.3281 0.0000 0.0000
# 23 texture coords

g Basic_Wall_Generic___200mm__322698_
usemtl wire_204204204
s off
f 1/1/1 2/2/1 3/3/1 4/4/1 
f 4/4/1 3/3/1 5/5/1 6/6/1 
f 7/7/1 4/4/1 6/6/1 
f 1/1/1 8/8/1 2/2/1 
f 9/1/2 10/9/2 11/10/2 12/3/2 
f 11/11/3 6/12/3 5/13/3 3/14/3 
f 12/15/3 11/11/3 3/14/3 2/16/3 
f 10/12/4 9/16/4 4/17/4 7/11/4 
f 1/18/4 4/17/4 9/16/4 8/15/4 
f 8/19/5 9/20/5 12/21/5 2/22/5 
f 6/23/6 11/3/6 10/1/6 7/8/6 
# 9 polygons - 2 triangles

#
# object Basic_Wall_Generic___200mm__324268_
#

v  2.6219 19.0000 14.9503
v  2.6219 10.5000 14.9503
v  -6.3781 10.5000 14.9503
v  -6.3781 19.0000 14.9503
v  -6.3781 19.0000 15.9503
v  -6.3781 10.5000 15.9503
v  2.6219 10.5000 15.9503
v  2.6219 19.0000 15.9503
# 8 vertices

vn 0.0000 0.0000 -1.0000
vn -0.0000 0.0000 1.0000
vn -1.0000 0.0000 -0.0000
vn 1.0000 0.0000 0.0000
vn 0.0000 1.0000 -0.0000
vn 0.0000 -1.0000 -0.0000
# 6 vertex normals

vt -0.0000 12.4672 0.0000
vt -0.0000 6.8898 0.0000
vt 5.9055 6.8898 0.0000
vt 5.9055 12.4672 0.0000
vt -5.9055 12.4672 0.0000
vt -5.9055 6.8898 0.0000
vt 0.0000 6.8898 0.0000
vt 0.0000 12.4672 0.0000
vt -0.3281 12.4672 0.0000
vt -0.3281 6.8898 0.0000
vt 0.3281 6.8898 0.0000
vt 0.3281 12.4672 0.0000
vt 5.9055 -0.3281 0.0000
vt 5.9055 0.3281 0.0000
vt 0.0000 0.3281 0.0000
vt 0.0000 -0.3281 0.0000
vt -0.0000 -0.3281 0.0000
vt -0.0000 0.3281 0.0000
# 18 texture coords

g Basic_Wall_Generic___200mm__324268_
usemtl wire_204204204
s off
f 13/24/7 14/25/7 15/26/7 16/27/7 
f 17/28/8 18/29/8 19/30/8 20/31/8 
f 16/32/9 15/33/9 18/34/9 17/35/9 
f 20/32/10 19/33/10 14/34/10 13/35/10 
f 16/36/11 17/37/11 20/38/11 13/39/11 
f 19/40/12 18/36/12 15/37/12 14/41/12 
# 6 polygons

#
# object Basic_Wall_Generic___200mm__368621_
#

v  -17.3781 -0.0000 15.9503
v  -17.3781 -0.0000 -23.7622
v  -17.3781 10.6700 -23.7622
v  -17.3781 19.0000 15.9503
v  -17.3781 19.0000 -33.0497
v  -17.3781 10.6700 -28.3372
v  -17.3781 0.0000 -33.0497
v  -17.3781 0.0000 -28.3372
v  -18.3781 -0.0000 -33.0497
v  -18.3781 0.0000 -28.3372
v  -18.3781 10.6700 -28.3372
v  -18.3781 19.0000 -33.0497
v  -18.3781 10.6700 -23.7622
v  -18.3781 19.0000 15.9503
v  -18.3781 0.0000 15.9503
v  -18.3781 0.0000 -23.7622
# 16 vertices

vn 1.0000 0.0000 0.0000
vn -1.0000 0.0000 -0.0000
vn 0.0000 -1.0000 -0.0000
vn -0.0000 0.0000 1.0000
vn 0.0000 0.0000 -1.0000
vn 0.0000 1.0000 -0.0000
# 6 vertex normals

vt -0.0000 -0.0000 0.0000
vt 26.0581 -0.0000 0.0000
vt 26.0581 7.0013 0.0000
vt 0.0000 12.4672 0.0000
vt 32.1522 12.4672 0.0000
vt 29.0600 7.0013 0.0000
vt 32.1522 0.0000 0.0000
vt 29.0600 0.0000 0.0000
vt -32.1522 -0.0000 0.0000
vt -29.0600 0.0000 0.0000
vt -29.0600 7.0013 0.0000
vt -32.1522 12.4672 0.0000
vt -26.0581 7.0013 0.0000
vt 0.0000 0.0000 0.0000
vt -26.0581 0.0000 0.0000
vt 32.1522 0.3281 0.0000
vt 29.0600 0.3281 0.0000
vt 29.0600 -0.3281 0.0000
vt 32.1522 -0.3281 0.0000
vt 26.0581 0.3281 0.0000
vt -0.0000 0.3281 0.0000
vt -0.0000 -0.3281 0.0000
vt 26.0581 -0.3281 0.0000
vt 0.3281 12.4672 0.0000
vt -0.3281 12.4672 0.0000
vt -0.3281 -0.0000 0.0000
vt 0.3281 -0.0000 0.0000
vt -0.3281 0.0000 0.0000
vt 0.3281 0.0000 0.0000
vt 0.3281 7.0013 0.0000
vt -0.3281 7.0013 0.0000
# 31 texture coords

g Basic_Wall_Generic___200mm__368621_
usemtl wire_204204204
s off
f 21/42/13 22/43/13 23/44/13 24/45/13 
f 25/46/13 24/45/13 23/44/13 26/47/13 
f 27/48/13 25/46/13 26/47/13 28/49/13 
f 29/50/14 30/51/14 31/52/14 32/53/14 
f 32/53/14 31/52/14 33/54/14 34/45/14 
f 35/55/14 34/45/14 33/54/14 36/56/14 
f 27/57/15 28/58/15 30/59/15 29/60/15 
f 22/61/15 21/62/15 35/63/15 36/64/15 
f 24/65/16 34/66/16 35/67/16 21/68/16 
f 27/69/17 29/70/17 32/65/17 25/66/17 
f 25/60/18 32/57/18 34/62/18 24/63/18 
f 22/69/17 36/70/17 33/71/17 23/72/17 
f 23/61/15 33/64/15 31/59/15 26/58/15 
f 26/71/16 31/72/16 30/69/16 28/70/16 
# 14 polygons

#
# object Basic_Wall_Generic___375mm__368629_
#

v  -6.3781 10.5000 15.9503
v  -8.3781 19.0000 15.9503
v  -8.3781 -0.0000 15.9503
v  -6.3781 0.0000 15.9503
v  -6.3781 19.0000 15.9503
v  -8.3781 19.0000 14.0753
v  -6.3781 19.0000 14.0753
v  -6.3781 0.0000 14.0753
v  -8.3781 0.0000 14.0753
v  -6.3781 19.0000 14.9503
# 10 vertices

vn 0.0000 0.0000 1.0000
vn 0.0000 0.0000 -1.0000
vn 0.0000 -1.0000 -0.0000
vn 1.0000 0.0000 -0.0000
vn -1.0000 0.0000 -0.0000
vn 0.0000 1.0000 -0.0000
# 6 vertex normals

vt 1.3123 6.8898 0.0000
vt 0.0000 12.4672 0.0000
vt 0.0000 -0.0000 0.0000
vt 1.3123 0.0000 0.0000
vt 1.3123 12.4672 0.0000
vt -0.0000 12.4672 0.0000
vt -1.3123 12.4672 0.0000
vt -1.3123 0.0000 0.0000
vt -0.0000 0.0000 0.0000
vt 0.0000 0.6152 0.0000
vt 0.0000 -0.6152 0.0000
vt 1.3123 -0.6152 0.0000
vt 1.3123 0.6152 0.0000
vt -0.6152 6.8898 0.0000
vt -0.6152 -0.0000 0.0000
vt 0.6152 0.0000 0.0000
vt 0.6152 12.4672 0.0000
vt 0.0410 12.4672 0.0000
vt -0.6152 12.4672 0.0000
vt 0.6152 -0.0000 0.0000
vt 1.3123 0.0410 0.0000
vt -0.0000 0.6152 0.0000
vt -0.0000 -0.6152 0.0000
# 23 texture coords

g Basic_Wall_Generic___375mm__368629_
usemtl wire_204204204
s off
f 37/73/19 38/74/19 39/75/19 40/76/19 
f 37/73/19 41/77/19 38/74/19 
f 42/78/20 43/79/20 44/80/20 45/81/20 
f 39/82/21 45/83/21 44/84/21 40/85/21 
f 37/86/22 40/87/22 44/88/22 43/89/22 
f 37/86/22 43/89/22 46/90/22 41/91/22 
f 38/89/23 42/91/23 45/87/23 39/92/23 
f 46/93/24 43/85/24 42/94/24 38/95/24 
f 38/95/24 41/84/24 46/93/24 
# 7 polygons - 2 triangles

#
# object Basic_Wall_Generic___200mm__368647_
#

v  13.6219 0.0000 15.9503
v  13.6219 19.0000 15.9503
v  13.6219 19.0000 -33.0497
v  13.6219 0.0000 -33.0497
v  14.6219 19.0000 -33.0497
v  14.6219 19.0000 15.9503
v  14.6219 0.0000 15.9503
v  14.6219 0.0000 -33.0497
# 8 vertices

vn -1.0000 0.0000 -0.0000
vn 1.0000 0.0000 0.0000
vn 0.0000 -1.0000 -0.0000
vn 0.0000 0.0000 1.0000
vn 0.0000 0.0000 -1.0000
vn 0.0000 1.0000 -0.0000
# 6 vertex normals

vt 32.4803 0.0000 0.0000
vt 32.4803 12.4672 0.0000
vt 0.3281 12.4672 0.0000
vt 0.3281 0.0000 0.0000
vt -0.3281 12.4672 0.0000
vt -32.4803 12.4672 0.0000
vt -32.4803 0.0000 0.0000
vt -0.3281 0.0000 0.0000
vt 0.3281 0.3281 0.0000
vt 0.3281 -0.3281 0.0000
vt 32.4803 -0.3281 0.0000
vt 32.4803 0.3281 0.0000
# 12 texture coords

g Basic_Wall_Generic___200mm__368647_
usemtl wire_204204204
s off
f 47/96/25 48/97/25 49/98/25 50/99/25 
f 51/100/26 52/101/26 53/102/26 54/103/26 
f 50/104/27 54/105/27 53/106/27 47/107/27 
f 47/103/28 53/99/28 52/98/28 48/100/28 
f 49/98/29 51/100/29 54/103/29 50/99/29 
f 48/106/30 52/107/30 51/104/30 49/105/30 
# 6 polygons

#
# object Basic_Wall_Generic___375mm__368655_
#

v  2.6219 0.0000 14.0753
v  2.6219 19.0000 14.0753
v  4.6219 19.0000 14.0753
v  4.6219 0.0000 14.0753
v  4.6219 0.0000 15.9503
v  4.6219 19.0000 15.9503
v  2.6219 10.5000 15.9503
v  2.6219 -0.0000 15.9503
v  2.6219 19.0000 15.9503
v  2.6219 19.0000 14.9503
# 10 vertices

vn 0.0000 0.0000 -1.0000
vn 0.0000 0.0000 1.0000
vn 0.0000 -1.0000 -0.0000
vn -1.0000 0.0000 -0.0000
vn 1.0000 0.0000 -0.0000
vn 0.0000 1.0000 -0.0000
# 6 vertex normals

vt 1.3123 0.0000 0.0000
vt 1.3123 12.4672 0.0000
vt 0.0000 12.4672 0.0000
vt 0.0000 0.0000 0.0000
vt -0.0000 0.0000 0.0000
vt -0.0000 12.4672 0.0000
vt -1.3123 6.8898 0.0000
vt -1.3123 -0.0000 0.0000
vt -1.3123 12.4672 0.0000
vt 0.0000 0.6152 0.0000
vt 0.0000 -0.6152 0.0000
vt 1.3123 -0.6152 0.0000
vt 1.3123 0.6152 0.0000
vt 0.6152 6.8898 0.0000
vt -0.0410 12.4672 0.0000
vt -0.6152 12.4672 0.0000
vt -0.6152 -0.0000 0.0000
vt 0.6152 0.0000 0.0000
vt 0.6152 12.4672 0.0000
vt 0.6152 -0.0000 0.0000
vt 1.3123 -0.0410 0.0000
# 21 texture coords

g Basic_Wall_Generic___375mm__368655_
usemtl wire_204204204
s off
f 55/108/31 56/109/31 57/110/31 58/111/31 
f 59/112/32 60/113/32 61/114/32 62/115/32 
f 61/114/32 60/113/32 63/116/32 
f 58/117/33 59/118/33 62/119/33 55/120/33 
f 61/121/34 64/122/34 56/123/34 55/124/34 
f 62/125/34 61/121/34 55/124/34 
f 61/121/34 63/126/34 64/122/34 
f 57/126/35 60/123/35 59/124/35 58/127/35 
f 57/118/36 56/119/36 64/128/36 60/117/36 
f 63/120/36 60/117/36 64/128/36 
# 6 polygons - 4 triangles

