# 3ds Max Wavefront OBJ Exporter v0.97b - (c)2007 guruware
# File Created: 01.12.2016 22:45:29

mtllib Walls-test.mtl

#
# object Plane001
#

v  -378.0541 409.7186 281.9989
v  -378.0541 409.7186 316.7975
v  -324.5559 409.7186 316.7975
v  -378.0541 409.7186 247.2003
v  -378.0541 409.7186 212.4018
v  -378.0541 409.7186 177.6032
v  -378.0541 409.7186 142.8046
v  -378.0541 409.7186 108.0060
v  -378.0541 409.7186 73.2074
v  -378.0541 409.7186 38.4088
v  -378.0541 409.7186 3.6102
v  -378.0541 409.7186 -31.1884
v  -378.0541 409.7186 -65.9870
v  -378.0541 409.7186 -100.7856
v  -378.0541 409.7186 -135.5842
v  -324.5559 409.7186 281.9989
v  424.4188 409.7186 316.7975
v  477.9170 409.7186 316.7975
v  477.9170 409.7186 281.9989
v  370.9206 409.7186 316.7975
v  317.4224 409.7186 316.7975
v  263.9242 409.7186 316.7975
v  210.4260 409.7186 316.7975
v  156.9278 409.7186 316.7975
v  103.4296 409.7186 316.7975
v  49.9314 409.7186 316.7975
v  -3.5668 409.7186 316.7975
v  -57.0650 409.7186 316.7975
v  -110.5632 409.7186 316.7975
v  -164.0613 409.7186 316.7975
v  -217.5595 409.7186 316.7975
v  -271.0577 409.7186 316.7975
v  424.4188 409.7186 281.9989
v  477.9170 409.7186 -205.1814
v  477.9170 409.7186 -239.9800
v  424.4188 409.7186 -239.9800
v  477.9170 409.7186 -170.3828
v  477.9170 409.7186 -135.5842
v  477.9170 409.7186 -100.7856
v  477.9170 409.7186 -65.9870
v  477.9170 409.7186 -31.1884
v  477.9170 409.7186 3.6102
v  477.9170 409.7186 38.4088
v  477.9170 409.7186 73.2074
v  477.9170 409.7186 108.0060
v  477.9170 409.7186 142.8046
v  477.9170 409.7186 177.6032
v  477.9170 409.7186 212.4018
v  477.9170 409.7186 247.2003
v  424.4188 409.7186 -205.1814
v  -3.5668 409.7186 -239.9800
v  -57.0650 409.7186 -239.9800
v  -65.6077 409.7187 -239.9800
v  -3.5668 409.7186 -205.1814
v  -65.6077 409.7187 -205.1814
v  49.9314 409.7186 -239.9800
v  103.4296 409.7186 -239.9800
v  156.9278 409.7186 -239.9800
v  210.4260 409.7186 -239.9800
v  263.9242 409.7186 -239.9800
v  317.4224 409.7186 -239.9800
v  370.9206 409.7186 -239.9800
v  103.4296 409.7186 -205.1814
v  210.4260 409.7186 -205.1814
v  317.4224 409.7186 -205.1814
v  424.4188 409.7186 -170.3828
v  424.4188 409.7186 -135.5842
v  424.4188 409.7186 -100.7856
v  424.4188 409.7186 -65.9870
v  424.4188 409.7186 -31.1884
v  424.4188 409.7186 3.6102
v  424.4188 409.7186 38.4088
v  424.4188 409.7186 73.2074
v  210.4260 409.7186 38.4088
v  181.9235 409.7187 38.4088
v  181.9235 409.7187 73.2074
v  263.9242 409.7186 38.4088
v  317.4224 409.7186 38.4088
v  370.9206 409.7186 38.4088
v  210.4260 409.7186 73.2074
v  263.9242 409.7186 73.2074
v  317.4224 409.7186 73.2074
v  370.9206 409.7186 73.2074
v  424.4188 409.7186 108.0060
v  424.4188 409.7186 142.8046
v  424.4188 409.7186 177.6032
v  424.4188 409.7186 212.4018
v  424.4188 409.7186 247.2004
v  370.9206 409.7186 281.9989
v  317.4224 409.7186 281.9989
v  263.9242 409.7186 281.9989
v  210.4260 409.7186 281.9989
v  156.9278 409.7186 281.9989
v  103.4296 409.7186 281.9989
v  49.9314 409.7186 281.9989
v  -3.5668 409.7186 281.9989
v  -57.0650 409.7186 281.9989
v  -110.5631 409.7186 281.9989
v  -164.0613 409.7186 281.9989
v  -217.5595 409.7186 281.9989
v  -271.0577 409.7186 281.9989
v  -324.5559 409.7186 247.2004
v  -324.5559 409.7186 212.4018
v  -324.5559 409.7186 177.6032
v  -324.5559 409.7186 142.8046
v  -324.5559 409.7186 108.0060
v  -324.5559 409.7186 73.2074
v  -110.5631 409.7186 73.2074
v  -57.0650 409.7186 73.2074
v  -57.0650 409.7186 38.4088
v  -164.0613 409.7186 73.2074
v  -217.5595 409.7186 73.2074
v  -271.0577 409.7186 73.2074
v  -110.5632 409.7186 38.4088
v  -164.0613 409.7186 38.4088
v  -217.5595 409.7186 38.4088
v  -271.0577 409.7186 38.4088
v  -324.5559 409.7186 38.4088
v  -378.0541 409.7186 -170.3828
v  -378.0541 409.7186 -205.1814
v  -378.0541 409.7186 -239.9800
v  -324.5559 409.7186 3.6102
v  -324.5559 409.7186 -31.1884
v  -324.5559 409.7186 -65.9870
v  -324.5559 409.7186 -100.7856
v  -324.5559 409.7186 -135.5842
v  -324.5559 409.7186 -170.3828
v  -324.5559 409.7186 -205.1814
v  -324.5559 409.7186 -239.9800
v  -378.0541 0.0000 -205.1814
v  -378.0541 0.0000 -239.9800
v  -324.5559 0.0000 -239.9800
v  -378.0541 0.0000 -170.3828
v  -110.5632 0.0000 38.4088
v  -57.0650 0.0000 38.4088
v  -57.0650 0.0000 73.2074
v  -164.0613 0.0000 38.4088
v  -217.5595 0.0000 38.4088
v  -271.0577 0.0000 38.4088
v  -324.5559 0.0000 38.4088
v  -110.5631 0.0000 73.2074
v  -164.0613 0.0000 73.2074
v  -217.5595 0.0000 73.2074
v  -271.0577 0.0000 73.2074
v  -324.5559 0.0000 73.2074
v  -324.5559 0.0000 212.4018
v  -324.5559 0.0000 247.2004
v  -324.5559 0.0000 281.9989
v  -378.0541 0.0000 281.9989
v  210.4260 0.0000 73.2074
v  181.9235 0.0000 73.2074
v  181.9235 0.0000 38.4088
v  263.9242 0.0000 73.2074
v  317.4224 0.0000 73.2074
v  370.9206 0.0000 73.2074
v  424.4188 0.0000 73.2074
v  210.4260 0.0000 38.4088
v  263.9242 0.0000 38.4088
v  317.4224 0.0000 38.4088
v  370.9206 0.0000 38.4088
v  424.4188 0.0000 38.4088
v  -3.5668 0.0000 -205.1814
v  -65.6077 0.0000 -205.1814
v  -3.5668 0.0000 -239.9800
v  -65.6077 0.0000 -239.9800
v  103.4296 0.0000 -205.1814
v  210.4260 0.0000 -205.1814
v  317.4224 0.0000 -205.1814
v  424.4188 0.0000 -205.1814
v  424.4188 0.0000 -239.9800
v  477.9170 0.0000 -239.9800
v  477.9170 0.0000 -205.1814
v  370.9206 0.0000 -239.9800
v  317.4224 0.0000 -239.9800
v  263.9242 0.0000 -239.9800
v  210.4260 0.0000 -239.9800
v  156.9278 0.0000 -239.9800
v  103.4296 0.0000 -239.9800
v  49.9314 0.0000 -239.9800
v  424.4188 0.0000 -170.3828
v  424.4188 0.0000 -135.5842
v  424.4188 0.0000 -100.7856
v  424.4188 0.0000 -65.9870
v  424.4188 0.0000 -31.1884
v  424.4188 0.0000 3.6102
v  424.4188 0.0000 108.0060
v  424.4188 0.0000 142.8046
v  424.4188 0.0000 177.6032
v  424.4188 0.0000 212.4018
v  424.4188 0.0000 247.2004
v  424.4188 0.0000 281.9989
v  477.9170 0.0000 281.9989
v  477.9170 0.0000 316.7975
v  424.4188 0.0000 316.7975
v  477.9170 0.0000 247.2003
v  477.9170 0.0000 212.4018
v  477.9170 0.0000 177.6032
v  477.9170 0.0000 142.8046
v  477.9170 0.0000 108.0060
v  477.9170 0.0000 73.2074
v  477.9170 0.0000 38.4088
v  477.9170 0.0000 3.6102
v  477.9170 0.0000 -31.1884
v  477.9170 0.0000 -65.9870
v  477.9170 0.0000 -100.7856
v  477.9170 0.0000 -135.5842
v  477.9170 0.0000 -170.3828
v  370.9206 0.0000 281.9989
v  317.4224 0.0000 281.9989
v  263.9242 0.0000 281.9989
v  210.4260 0.0000 281.9989
v  156.9278 0.0000 281.9989
v  103.4296 0.0000 281.9989
v  49.9314 0.0000 281.9989
v  -3.5668 0.0000 281.9989
v  -57.0650 0.0000 281.9989
v  -110.5631 0.0000 281.9989
v  -164.0613 0.0000 281.9989
v  -217.5595 0.0000 281.9989
v  -271.0577 0.0000 281.9989
v  -324.5559 0.0000 316.7975
v  -378.0541 0.0000 316.7975
v  -271.0577 0.0000 316.7975
v  -217.5595 0.0000 316.7975
v  -164.0613 0.0000 316.7975
v  -110.5632 0.0000 316.7975
v  -57.0650 0.0000 316.7975
v  -3.5668 0.0000 316.7975
v  49.9314 0.0000 316.7975
v  103.4296 0.0000 316.7975
v  156.9278 0.0000 316.7975
v  210.4260 0.0000 316.7975
v  263.9242 0.0000 316.7975
v  317.4224 0.0000 316.7975
v  370.9206 0.0000 316.7975
v  -324.5559 0.0000 177.6032
v  -324.5559 0.0000 142.8046
v  -324.5559 0.0000 108.0060
v  -324.5559 0.0000 3.6102
v  -324.5559 0.0000 -31.1884
v  -324.5559 0.0000 -65.9870
v  -324.5559 0.0000 -100.7856
v  -324.5559 0.0000 -135.5842
v  -324.5559 0.0000 -170.3828
v  -324.5559 0.0000 -205.1814
v  -378.0541 0.0000 247.2003
v  -378.0541 0.0000 212.4018
v  -378.0541 0.0000 177.6032
v  -378.0541 0.0000 142.8046
v  -378.0541 0.0000 108.0060
v  -378.0541 0.0000 73.2074
v  -378.0541 0.0000 38.4088
v  -378.0541 0.0000 3.6102
v  -378.0541 0.0000 -31.1884
v  -378.0541 0.0000 -65.9870
v  -378.0541 0.0000 -100.7856
v  -378.0541 0.0000 -135.5842
# 257 vertices

vn 0.0000 1.0000 -0.0000
vn 0.0000 1.0000 -0.0001
vn 0.0000 -0.5547 -0.8321
vn 0.0000 1.0000 0.0000
vn 0.0000 -1.0000 -0.0000
vn 1.0000 0.0000 0.0000
vn 1.0000 0.0000 -0.0000
vn 0.0000 0.0000 -1.0000
vn 0.0000 0.0000 1.0000
vn -1.0000 0.0000 -0.0000
vn 0.0000 -0.0000 -1.0000
vn -1.0000 0.0000 0.0000
# 12 vertex normals

vt 0.0000 0.0625 0.0000
vt 0.0000 0.0000 0.0000
vt 0.0625 0.0000 0.0000
vt 0.0000 0.1250 0.0000
vt 0.0000 0.1875 0.0000
vt 0.0000 0.2500 0.0000
vt 0.0000 0.3125 0.0000
vt 0.0000 0.3750 0.0000
vt 0.0000 0.4375 0.0000
vt 0.0000 0.5000 0.0000
vt 0.0000 0.5625 0.0000
vt 0.0000 0.6250 0.0000
vt 0.0000 0.6875 0.0000
vt 0.0000 0.7500 0.0000
vt 0.0000 0.8125 0.0000
vt 0.0625 0.0625 0.0000
vt 0.9375 0.0000 0.0000
vt 1.0000 0.0000 0.0000
vt 1.0000 0.0625 0.0000
vt 0.8750 0.0000 0.0000
vt 0.8125 0.0000 0.0000
vt 0.7500 0.0000 0.0000
vt 0.6875 0.0000 0.0000
vt 0.6250 0.0000 0.0000
vt 0.5625 0.0000 0.0000
vt 0.5000 0.0000 0.0000
vt 0.4375 0.0000 0.0000
vt 0.3750 0.0000 0.0000
vt 0.3125 0.0000 0.0000
vt 0.2500 0.0000 0.0000
vt 0.1875 0.0000 0.0000
vt 0.1250 0.0000 0.0000
vt 0.9375 0.0625 0.0000
vt 1.0000 0.9375 0.0000
vt 1.0000 1.0000 0.0000
vt 0.9375 1.0000 0.0000
vt 1.0000 0.8750 0.0000
vt 1.0000 0.8125 0.0000
vt 1.0000 0.7500 0.0000
vt 1.0000 0.6875 0.0000
vt 1.0000 0.6250 0.0000
vt 1.0000 0.5625 0.0000
vt 1.0000 0.5000 0.0000
vt 1.0000 0.4375 0.0000
vt 1.0000 0.3750 0.0000
vt 1.0000 0.3125 0.0000
vt 1.0000 0.2500 0.0000
vt 1.0000 0.1875 0.0000
vt 1.0000 0.1250 0.0000
vt 0.9375 0.9375 0.0000
vt 0.4375 1.0000 0.0000
vt 0.3750 1.0000 0.0000
vt 0.3125 1.0000 0.0000
vt 0.4375 0.9375 0.0000
vt 0.3125 0.9375 0.0000
vt 0.5000 1.0000 0.0000
vt 0.5625 1.0000 0.0000
vt 0.6250 1.0000 0.0000
vt 0.6875 1.0000 0.0000
vt 0.7500 1.0000 0.0000
vt 0.8125 1.0000 0.0000
vt 0.8750 1.0000 0.0000
vt 0.5625 0.9375 0.0000
vt 0.6875 0.9375 0.0000
vt 0.8125 0.9375 0.0000
vt 0.9375 0.8750 0.0000
vt 0.9375 0.8125 0.0000
vt 0.9375 0.7500 0.0000
vt 0.9375 0.6875 0.0000
vt 0.9375 0.6250 0.0000
vt 0.9375 0.5625 0.0000
vt 0.9375 0.5000 0.0000
vt 0.9375 0.4375 0.0000
vt 0.6875 0.5000 0.0000
vt 0.6250 0.5000 0.0000
vt 0.6250 0.4375 0.0000
vt 0.7500 0.5000 0.0000
vt 0.8125 0.5000 0.0000
vt 0.8750 0.5000 0.0000
vt 0.6875 0.4375 0.0000
vt 0.7500 0.4375 0.0000
vt 0.8125 0.4375 0.0000
vt 0.8750 0.4375 0.0000
vt 0.9375 0.3750 0.0000
vt 0.9375 0.3125 0.0000
vt 0.9375 0.2500 0.0000
vt 0.9375 0.1875 0.0000
vt 0.9375 0.1250 0.0000
vt 0.8750 0.0625 0.0000
vt 0.8125 0.0625 0.0000
vt 0.7500 0.0625 0.0000
vt 0.6875 0.0625 0.0000
vt 0.6250 0.0625 0.0000
vt 0.5625 0.0625 0.0000
vt 0.5000 0.0625 0.0000
vt 0.4375 0.0625 0.0000
vt 0.3750 0.0625 0.0000
vt 0.3125 0.0625 0.0000
vt 0.2500 0.0625 0.0000
vt 0.1875 0.0625 0.0000
vt 0.1250 0.0625 0.0000
vt 0.0625 0.1250 0.0000
vt 0.0625 0.1875 0.0000
vt 0.0625 0.2500 0.0000
vt 0.0625 0.3125 0.0000
vt 0.0625 0.3750 0.0000
vt 0.0625 0.4375 0.0000
vt 0.3125 0.4375 0.0000
vt 0.3750 0.4375 0.0000
vt 0.3750 0.5000 0.0000
vt 0.2500 0.4375 0.0000
vt 0.1875 0.4375 0.0000
vt 0.1250 0.4375 0.0000
vt 0.3125 0.5000 0.0000
vt 0.2500 0.5000 0.0000
vt 0.1875 0.5000 0.0000
vt 0.1250 0.5000 0.0000
vt 0.0625 0.5000 0.0000
vt 0.0000 0.8750 0.0000
vt 0.0000 0.9375 0.0000
vt 0.0000 1.0000 0.0000
vt 0.0625 0.5625 0.0000
vt 0.0625 0.6250 0.0000
vt 0.0625 0.6875 0.0000
vt 0.0625 0.7500 0.0000
vt 0.0625 0.8125 0.0000
vt 0.0625 0.8750 0.0000
vt 0.0625 0.9375 0.0000
vt 0.0625 1.0000 0.0000
# 129 texture coords

g Plane001
usemtl wire_087225198
s 1
f 1/1/1 2/2/1 3/3/1 4/4/1 
f 5/5/1 4/4/1 3/3/1 6/6/1 
f 7/7/1 6/6/1 3/3/1 8/8/1 
f 9/9/1 8/8/1 3/3/1 10/10/1 
f 11/11/1 10/10/1 3/3/1 12/12/1 
f 13/13/1 12/12/1 3/3/1 14/14/1 
f 15/15/1 14/14/1 3/3/1 16/16/1 
f 17/17/1 18/18/1 19/19/1 20/20/1 
f 21/21/1 20/20/1 19/19/1 22/22/1 
f 23/23/1 22/22/1 19/19/1 24/24/1 
f 25/25/1 24/24/1 19/19/1 26/26/1 
f 27/27/1 26/26/1 19/19/1 28/28/1 
f 29/29/1 28/28/1 19/19/1 30/30/1 
f 31/31/1 30/30/1 19/19/1 32/32/1 
f 3/3/1 32/32/1 19/19/1 33/33/1 
f 34/34/1 35/35/1 36/36/1 37/37/1 
f 38/38/1 37/37/1 36/36/1 39/39/1 
f 40/40/1 39/39/1 36/36/1 41/41/1 
f 42/42/1 41/41/1 36/36/1 43/43/1 
f 44/44/1 43/43/1 36/36/1 45/45/1 
f 46/46/1 45/45/1 36/36/1 47/47/1 
f 48/48/1 47/47/1 36/36/1 49/49/1 
f 19/19/1 49/49/1 36/36/1 50/50/1 
f 51/51/2 52/52/3 53/53/1 54/54/1 
f 55/55/1 54/54/1 53/53/1 
f 56/56/1 51/51/2 54/54/1 57/57/1 
f 58/58/1 57/57/1 54/54/1 59/59/1 
f 60/60/1 59/59/1 54/54/1 61/61/1 
f 62/62/1 61/61/1 54/54/1 36/36/1 
f 36/36/1 54/54/1 63/63/1 
f 36/36/1 63/63/1 64/64/1 
f 36/36/1 64/64/1 65/65/1 
f 36/36/1 65/65/1 50/50/1 
f 19/19/1 50/50/1 66/66/1 67/67/1 
f 19/19/1 67/67/1 68/68/1 69/69/1 
f 19/19/1 69/69/1 70/70/1 71/71/1 
f 19/19/1 71/71/1 72/72/1 73/73/1 
f 74/74/1 75/75/1 76/76/4 77/77/1 
f 78/78/1 77/77/1 76/76/4 79/79/1 
f 72/72/1 79/79/1 76/76/4 80/80/4 
f 72/72/1 80/80/4 81/81/1 82/82/1 
f 72/72/1 82/82/1 83/83/1 73/73/1 
f 19/19/1 73/73/1 84/84/1 85/85/1 
f 19/19/1 85/85/1 86/86/1 87/87/1 
f 19/19/1 87/87/1 88/88/1 33/33/1 
f 3/3/1 33/33/1 89/89/1 90/90/1 
f 3/3/1 90/90/1 91/91/1 92/92/1 
f 3/3/1 92/92/1 93/93/1 94/94/1 
f 3/3/1 94/94/1 95/95/1 96/96/1 
f 3/3/1 96/96/1 97/97/1 98/98/1 
f 3/3/1 98/98/1 99/99/1 100/100/1 
f 3/3/1 100/100/1 101/101/1 16/16/1 
f 15/15/1 16/16/1 102/102/1 103/103/1 
f 15/15/1 103/103/1 104/104/1 105/105/1 
f 15/15/1 105/105/1 106/106/1 107/107/1 
f 108/108/1 109/109/1 110/110/1 111/111/1 
f 112/112/1 111/111/1 110/110/1 113/113/1 
f 107/107/1 113/113/1 110/110/1 114/114/1 
f 107/107/1 114/114/1 115/115/1 116/116/1 
f 107/107/1 116/116/1 117/117/1 118/118/1 
f 15/15/1 107/107/1 118/118/1 119/119/1 
f 120/120/1 119/119/1 118/118/1 121/121/1 
f 121/121/1 118/118/1 122/122/1 123/123/1 
f 121/121/1 123/123/1 124/124/1 125/125/1 
f 121/121/1 125/125/1 126/126/1 127/127/1 
f 121/121/1 127/127/1 128/128/1 129/129/1 
f 130/120/5 131/121/5 132/129/5 133/119/5 
f 134/114/5 135/110/5 136/109/5 137/115/5 
f 138/116/5 137/115/5 136/109/5 139/117/5 
f 140/118/5 139/117/5 136/109/5 141/108/5 
f 140/118/5 141/108/5 142/111/5 143/112/5 
f 140/118/5 143/112/5 144/113/5 145/107/5 
f 146/103/5 147/102/5 148/16/5 149/1/5 
f 150/80/5 151/76/5 152/75/5 153/81/5 
f 154/82/5 153/81/5 152/75/5 155/83/5 
f 156/73/5 155/83/5 152/75/5 157/74/5 
f 156/73/5 157/74/5 158/77/5 159/78/5 
f 156/73/5 159/78/5 160/79/5 161/72/5 
f 162/54/5 163/55/5 164/51/5 
f 165/53/5 164/51/5 163/55/5 
f 162/54/5 164/51/5 166/63/5 
f 166/63/5 164/51/5 167/64/5 
f 167/64/5 164/51/5 168/65/5 
f 168/65/5 164/51/5 169/50/5 
f 170/36/5 171/35/5 172/34/5 173/62/5 
f 174/61/5 173/62/5 172/34/5 175/60/5 
f 176/59/5 175/60/5 172/34/5 177/58/5 
f 178/57/5 177/58/5 172/34/5 179/56/5 
f 164/51/5 179/56/5 172/34/5 169/50/5 
f 180/66/5 169/50/5 172/34/5 181/67/5 
f 182/68/5 181/67/5 172/34/5 183/69/5 
f 184/70/5 183/69/5 172/34/5 185/71/5 
f 161/72/5 185/71/5 172/34/5 156/73/5 
f 186/84/5 156/73/5 172/34/5 187/85/5 
f 188/86/5 187/85/5 172/34/5 189/87/5 
f 190/88/5 189/87/5 172/34/5 191/33/5 
f 192/19/5 193/18/5 194/17/5 195/49/5 
f 196/48/5 195/49/5 194/17/5 197/47/5 
f 198/46/5 197/47/5 194/17/5 199/45/5 
f 200/44/5 199/45/5 194/17/5 201/43/5 
f 202/42/5 201/43/5 194/17/5 203/41/5 
f 204/40/5 203/41/5 194/17/5 205/39/5 
f 206/38/5 205/39/5 194/17/5 207/37/5 
f 172/34/5 207/37/5 194/17/5 191/33/5 
f 208/89/5 191/33/5 194/17/5 209/90/5 
f 210/91/5 209/90/5 194/17/5 211/92/5 
f 212/93/5 211/92/5 194/17/5 213/94/5 
f 214/95/5 213/94/5 194/17/5 215/96/5 
f 216/97/5 215/96/5 194/17/5 217/98/5 
f 218/99/5 217/98/5 194/17/5 219/100/5 
f 220/101/5 219/100/5 194/17/5 148/16/5 
f 221/3/5 222/2/5 149/1/5 223/32/5 
f 224/31/5 223/32/5 149/1/5 225/30/5 
f 226/29/5 225/30/5 149/1/5 227/28/5 
f 228/27/5 227/28/5 149/1/5 229/26/5 
f 230/25/5 229/26/5 149/1/5 231/24/5 
f 232/23/5 231/24/5 149/1/5 233/22/5 
f 234/21/5 233/22/5 149/1/5 235/20/5 
f 194/17/5 235/20/5 149/1/5 148/16/5 
f 236/104/5 146/103/5 149/1/5 237/105/5 
f 238/106/5 237/105/5 149/1/5 145/107/5 
f 140/118/5 145/107/5 149/1/5 239/122/5 
f 240/123/5 239/122/5 149/1/5 241/124/5 
f 242/125/5 241/124/5 149/1/5 243/126/5 
f 244/127/5 243/126/5 149/1/5 245/128/5 
f 132/129/5 245/128/5 149/1/5 246/4/5 
f 132/129/5 246/4/5 247/5/5 248/6/5 
f 132/129/5 248/6/5 249/7/5 250/8/5 
f 132/129/5 250/8/5 251/9/5 252/10/5 
f 132/129/5 252/10/5 253/11/5 254/12/5 
f 132/129/5 254/12/5 255/13/5 256/14/5 
f 132/129/5 256/14/5 257/15/5 133/119/5 
s 4
f 102/102/6 16/16/6 148/16/6 147/102/6 
f 103/103/7 102/102/6 147/102/6 146/103/7 
f 104/104/7 103/103/7 146/103/7 236/104/7 
f 238/106/7 145/107/7 107/107/7 106/106/7 
f 237/105/6 238/106/7 106/106/7 105/105/6 
f 236/104/7 237/105/6 105/105/6 104/104/7 
s 2
f 89/89/8 33/33/8 191/33/8 208/89/8 
f 90/90/8 89/89/8 208/89/8 209/90/8 
f 91/91/8 90/90/8 209/90/8 210/91/8 
f 92/92/8 91/91/8 210/91/8 211/92/8 
f 220/101/8 148/16/8 16/16/8 101/101/8 
f 219/100/8 220/101/8 101/101/8 100/100/8 
f 218/99/8 219/100/8 100/100/8 99/99/8 
f 217/98/8 218/99/8 99/99/8 98/98/8 
f 216/97/8 217/98/8 98/98/8 97/97/8 
f 215/96/8 216/97/8 97/97/8 96/96/8 
f 214/95/8 215/96/8 96/96/8 95/95/8 
f 213/94/8 214/95/8 95/95/8 94/94/8 
f 212/93/8 213/94/8 94/94/8 93/93/8 
f 211/92/8 212/93/8 93/93/8 92/92/8 
s 4
f 3/3/9 2/2/9 222/2/9 221/3/9 
f 32/32/9 3/3/9 221/3/9 223/32/9 
f 31/31/9 32/32/9 223/32/9 224/31/9 
f 30/30/9 31/31/9 224/31/9 225/30/9 
f 29/29/9 30/30/9 225/30/9 226/29/9 
f 28/28/9 29/29/9 226/29/9 227/28/9 
f 27/27/9 28/28/9 227/28/9 228/27/9 
f 26/26/9 27/27/9 228/27/9 229/26/9 
f 25/25/9 26/26/9 229/26/9 230/25/9 
f 24/24/9 25/25/9 230/25/9 231/24/9 
f 23/23/9 24/24/9 231/24/9 232/23/9 
f 22/22/9 23/23/9 232/23/9 233/22/9 
f 21/21/9 22/22/9 233/22/9 234/21/9 
f 20/20/9 21/21/9 234/21/9 235/20/9 
f 17/17/9 20/20/9 235/20/9 194/17/9 
f 18/18/9 17/17/9 194/17/9 193/18/9 
f 84/84/10 73/73/10 156/73/10 186/84/10 
f 85/85/10 84/84/10 186/84/10 187/85/10 
f 86/86/10 85/85/10 187/85/10 188/86/10 
f 87/87/10 86/86/10 188/86/10 189/87/10 
f 190/88/10 191/33/10 33/33/10 88/88/10 
f 189/87/10 190/88/10 88/88/10 87/87/10 
s 2
f 114/114/8 110/110/8 135/110/8 134/114/8 
f 115/115/8 114/114/8 134/114/8 137/115/8 
f 116/116/8 115/115/8 137/115/8 138/116/8 
f 139/117/8 140/118/8 118/118/8 117/117/8 
f 138/116/8 139/117/8 117/117/8 116/116/8 
f 113/113/9 107/107/9 145/107/9 144/113/9 
f 112/112/9 113/113/9 144/113/9 143/112/9 
f 111/111/9 112/112/9 143/112/9 142/111/9 
f 141/108/9 136/109/9 109/109/9 108/108/9 
f 142/111/9 141/108/9 108/108/9 111/111/9 
f 120/120/10 121/121/10 131/121/10 130/120/10 
f 119/119/10 120/120/10 130/120/10 133/119/10 
f 15/15/10 119/119/10 133/119/10 257/15/10 
f 14/14/10 15/15/10 257/15/10 256/14/10 
f 13/13/10 14/14/10 256/14/10 255/13/10 
f 12/12/10 13/13/10 255/13/10 254/12/10 
f 11/11/10 12/12/10 254/12/10 253/11/10 
f 10/10/10 11/11/10 253/11/10 252/10/10 
f 9/9/10 10/10/10 252/10/10 251/9/10 
f 149/1/10 222/2/10 2/2/10 1/1/10 
f 246/4/10 149/1/10 1/1/10 4/4/10 
f 247/5/10 246/4/10 4/4/10 5/5/10 
f 248/6/10 247/5/10 5/5/10 6/6/10 
f 249/7/10 248/6/10 6/6/10 7/7/10 
f 250/8/10 249/7/10 7/7/10 8/8/10 
f 251/9/10 250/8/10 8/8/10 9/9/10 
s 4
f 136/109/7 135/110/7 110/110/7 109/109/7 
s 2
f 79/79/8 72/72/8 161/72/8 160/79/8 
f 78/78/8 79/79/8 160/79/8 159/78/8 
f 77/77/8 78/78/8 159/78/8 158/77/8 
f 74/74/8 77/77/8 158/77/8 157/74/8 
f 157/74/8 152/75/8 75/75/8 74/74/8 
f 80/80/9 76/76/9 151/76/9 150/80/9 
f 81/81/9 80/80/9 150/80/9 153/81/9 
f 155/83/9 156/73/9 73/73/9 83/83/9 
f 154/82/9 155/83/9 83/83/9 82/82/9 
f 153/81/9 154/82/9 82/82/9 81/81/9 
s 4
f 152/75/10 151/76/10 76/76/10 75/75/10 
f 66/66/10 50/50/10 169/50/10 180/66/10 
f 67/67/10 66/66/10 180/66/10 181/67/10 
f 68/68/10 67/67/10 181/67/10 182/68/10 
f 69/69/10 68/68/10 182/68/10 183/69/10 
f 185/71/10 161/72/10 72/72/10 71/71/10 
f 184/70/10 185/71/10 71/71/10 70/70/10 
f 183/69/10 184/70/10 70/70/10 69/69/10 
s 8
f 132/129/8 131/121/8 121/121/8 129/129/8 
s 4
f 122/122/6 118/118/7 140/118/7 239/122/6 
f 123/123/6 122/122/6 239/122/6 240/123/6 
f 124/124/7 123/123/6 240/123/6 241/124/7 
f 125/125/7 124/124/7 241/124/7 242/125/7 
f 126/126/6 125/125/7 242/125/7 243/126/6 
f 127/127/7 126/126/6 243/126/6 244/127/7 
f 128/128/7 127/127/7 244/127/7 245/128/7 
f 129/129/7 128/128/7 245/128/7 132/129/7 
f 36/36/8 35/35/8 171/35/11 62/62/8 
f 61/61/8 62/62/8 171/35/11 60/60/8 
f 59/59/8 60/60/8 171/35/11 58/58/8 
f 57/57/8 58/58/8 171/35/11 56/56/8 
f 51/51/8 56/56/8 171/35/11 52/52/8 
f 165/53/8 53/53/8 164/51/11 
f 179/56/11 164/51/11 53/53/8 178/57/11 
f 177/58/11 178/57/11 53/53/8 176/59/11 
f 175/60/11 176/59/11 53/53/8 174/61/11 
f 173/62/11 174/61/11 53/53/8 170/36/11 
f 171/35/11 170/36/11 53/53/8 52/52/8 
s 2
f 55/55/9 163/55/9 54/54/9 
f 54/54/9 163/55/9 63/63/9 
f 169/50/9 50/50/9 168/65/9 
f 168/65/9 50/50/9 167/64/9 
f 167/64/9 50/50/9 166/63/9 
f 166/63/9 50/50/9 162/54/9 
f 162/54/9 50/50/9 163/55/9 
f 163/55/9 50/50/9 65/65/9 
f 163/55/9 65/65/9 64/64/9 
f 163/55/9 64/64/9 63/63/9 
s 8
f 165/53/12 163/55/12 55/55/12 53/53/12 
s 2
f 19/19/7 18/18/7 193/18/7 192/19/7 
f 49/49/7 19/19/7 192/19/7 195/49/7 
f 48/48/7 49/49/7 195/49/7 196/48/7 
f 47/47/7 48/48/7 196/48/7 197/47/7 
f 46/46/7 47/47/7 197/47/7 198/46/7 
f 45/45/7 46/46/7 198/46/7 199/45/7 
f 44/44/7 45/45/7 199/45/7 200/44/7 
f 43/43/7 44/44/7 200/44/7 201/43/7 
f 42/42/7 43/43/7 201/43/7 202/42/7 
f 41/41/7 42/42/7 202/42/7 203/41/7 
f 40/40/7 41/41/7 203/41/7 204/40/7 
f 39/39/7 40/40/7 204/40/7 205/39/7 
f 38/38/7 39/39/7 205/39/7 206/38/7 
f 37/37/7 38/38/7 206/38/7 207/37/7 
f 34/34/7 37/37/7 207/37/7 172/34/7 
f 35/35/7 34/34/7 172/34/7 171/35/7 
# 244 polygons - 22 triangles

