# 3ds Max Wavefront OBJ Exporter v0.97b - (c)2007 guruware
# File Created: 01.12.2016 21:13:41

mtllib Walls-test.mtl

#
# object Plane001
#

v  -187.1056 226.9200 173.3196
v  -187.1056 226.9200 192.5926
v  -157.4760 226.9200 192.5926
v  -157.4760 226.9200 173.3196
v  -127.8464 226.9200 192.5926
v  -127.8464 226.9200 173.3196
v  -157.4760 226.9200 154.0466
v  -187.1056 226.9200 154.0466
v  -98.2167 226.9200 192.5926
v  -68.5871 226.9200 192.5926
v  -68.5871 226.9200 173.3196
v  -98.2167 226.9200 173.3196
v  -157.4760 226.9200 115.5007
v  -187.1056 226.9200 115.5007
v  -187.1056 226.9200 134.7737
v  -157.4760 226.9200 134.7737
v  -38.9575 226.9200 192.5926
v  -38.9575 226.9200 173.3196
v  -9.3278 226.9200 192.5926
v  -9.3278 226.9200 173.3196
v  20.3018 226.9200 192.5926
v  49.9314 226.9200 192.5926
v  49.9314 226.9200 173.3196
v  20.3018 226.9200 173.3196
v  79.5611 226.9200 192.5926
v  79.5611 226.9200 173.3196
v  109.1907 226.9200 192.5926
v  109.1907 226.9200 173.3196
v  138.8203 226.9200 192.5926
v  168.4499 226.9200 192.5926
v  168.4499 226.9200 173.3196
v  138.8203 226.9200 173.3196
v  198.0796 226.9200 192.5926
v  198.0796 226.9200 173.3196
v  227.7092 226.9200 192.5926
v  227.7092 226.9200 173.3196
v  257.3388 226.9200 192.5926
v  286.9684 226.9200 192.5926
v  286.9684 226.9200 173.3196
v  257.3388 226.9200 173.3196
v  286.9684 226.9200 154.0466
v  257.3388 226.9200 154.0466
v  286.9684 226.9200 134.7737
v  286.9684 226.9200 115.5007
v  257.3388 226.9200 115.5007
v  257.3388 226.9200 134.7737
v  -187.1056 226.9200 96.2277
v  -157.4760 226.9200 96.2277
v  -157.4760 226.9200 76.9547
v  -187.1056 226.9200 76.9547
v  -68.5871 226.9200 57.6818
v  -68.5871 226.9200 38.4088
v  -98.2167 226.9200 38.4088
v  -98.2167 226.9200 57.6818
v  -127.8464 226.9200 38.4088
v  -127.8464 226.9200 57.6818
v  -157.4760 226.9200 38.4088
v  -187.1056 226.9200 38.4088
v  -187.1056 226.9200 57.6818
v  -157.4760 226.9200 57.6818
v  -38.9575 226.9200 38.4088
v  -38.9575 226.9200 57.6818
v  -9.3278 226.9200 57.6818
v  -9.3278 226.9200 38.4088
v  168.4499 226.9200 57.6818
v  168.4499 226.9200 38.4088
v  138.8203 226.9200 38.4088
v  138.8203 226.9200 57.6818
v  109.1907 226.9200 38.4088
v  109.1907 226.9200 57.6818
v  286.9684 226.9200 96.2277
v  257.3388 226.9200 96.2277
v  286.9684 226.9200 76.9547
v  257.3388 226.9200 76.9547
v  286.9684 226.9200 57.6818
v  286.9684 226.9200 38.4088
v  257.3388 226.9200 38.4088
v  257.3388 226.9200 57.6818
v  227.7092 226.9200 38.4088
v  227.7092 226.9200 57.6818
v  198.0796 226.9200 38.4088
v  198.0796 226.9200 57.6818
v  -187.1056 226.9200 19.1358
v  -157.4760 226.9200 19.1358
v  -157.4760 226.9200 -0.1372
v  -187.1056 226.9200 -0.1372
v  -157.4760 226.9200 -38.6831
v  -187.1056 226.9200 -38.6831
v  -187.1056 226.9200 -19.4101
v  -157.4760 226.9200 -19.4101
v  286.9684 226.9200 19.1358
v  257.3388 226.9200 19.1358
v  286.9684 226.9200 -0.1372
v  257.3388 226.9200 -0.1372
v  286.9684 226.9200 -19.4101
v  286.9684 226.9200 -38.6831
v  257.3388 226.9200 -38.6831
v  257.3388 226.9200 -19.4101
v  -187.1056 226.9200 -57.9561
v  -157.4760 226.9200 -57.9561
v  -157.4760 226.9200 -77.2291
v  -187.1056 226.9200 -77.2291
v  -157.4760 226.9200 -115.7750
v  -187.1056 226.9200 -115.7750
v  -187.1056 226.9200 -96.5020
v  -157.4760 226.9200 -96.5020
v  49.9314 226.9200 -96.5020
v  49.9314 226.9200 -115.7750
v  20.3018 226.9200 -115.7750
v  20.3018 226.9200 -96.5020
v  -9.3278 226.9200 -115.7750
v  -9.3278 226.9200 -96.5020
v  -38.9575 226.9200 -115.7750
v  -38.9575 226.9200 -96.5020
v  168.4499 226.9200 -96.5020
v  168.4499 226.9200 -115.7750
v  138.8203 226.9200 -115.7750
v  138.8203 226.9200 -96.5020
v  109.1907 226.9200 -115.7750
v  109.1907 226.9200 -96.5020
v  79.5611 226.9200 -115.7750
v  79.5611 226.9200 -96.5020
v  286.9684 226.9200 -57.9561
v  257.3388 226.9200 -57.9561
v  286.9684 226.9200 -77.2291
v  257.3388 226.9200 -77.2291
v  286.9684 226.9200 -96.5020
v  286.9684 226.9200 -115.7750
v  257.3388 226.9200 -115.7750
v  257.3388 226.9200 -96.5020
v  227.7092 226.9200 -115.7750
v  227.7092 226.9200 -96.5020
v  198.0796 226.9200 -115.7750
v  198.0796 226.9200 -96.5020
v  -157.4760 0.0000 192.5926
v  -187.1056 0.0000 192.5926
v  -187.1056 0.0000 173.3196
v  -157.4760 0.0000 173.3196
v  -127.8464 0.0000 173.3196
v  -127.8464 0.0000 192.5926
v  -187.1056 0.0000 154.0466
v  -157.4760 0.0000 154.0466
v  -68.5871 0.0000 173.3196
v  -68.5871 0.0000 192.5926
v  -98.2167 0.0000 192.5926
v  -98.2167 0.0000 173.3196
v  -187.1056 0.0000 134.7737
v  -187.1056 0.0000 115.5007
v  -157.4760 0.0000 115.5007
v  -157.4760 0.0000 134.7737
v  -38.9575 0.0000 192.5926
v  -38.9575 0.0000 173.3196
v  -9.3278 0.0000 173.3196
v  -9.3278 0.0000 192.5926
v  49.9314 0.0000 173.3196
v  49.9314 0.0000 192.5926
v  20.3018 0.0000 192.5926
v  20.3018 0.0000 173.3196
v  79.5611 0.0000 192.5926
v  79.5611 0.0000 173.3196
v  109.1907 0.0000 173.3196
v  109.1907 0.0000 192.5926
v  168.4499 0.0000 173.3196
v  168.4499 0.0000 192.5926
v  138.8203 0.0000 192.5926
v  138.8203 0.0000 173.3196
v  198.0796 0.0000 192.5926
v  198.0796 0.0000 173.3196
v  227.7092 0.0000 173.3196
v  227.7092 0.0000 192.5926
v  286.9684 0.0000 173.3196
v  286.9684 0.0000 192.5926
v  257.3388 0.0000 192.5926
v  257.3388 0.0000 173.3196
v  257.3388 0.0000 154.0466
v  286.9684 0.0000 154.0466
v  257.3388 0.0000 115.5007
v  286.9684 0.0000 115.5007
v  286.9684 0.0000 134.7737
v  257.3388 0.0000 134.7737
v  -187.1056 0.0000 96.2277
v  -157.4760 0.0000 96.2277
v  -187.1056 0.0000 76.9547
v  -157.4760 0.0000 76.9547
v  -98.2167 0.0000 38.4088
v  -68.5871 0.0000 38.4088
v  -68.5871 0.0000 57.6818
v  -98.2167 0.0000 57.6818
v  -127.8464 0.0000 57.6818
v  -127.8464 0.0000 38.4088
v  -187.1056 0.0000 57.6818
v  -187.1056 0.0000 38.4088
v  -157.4760 0.0000 38.4088
v  -157.4760 0.0000 57.6818
v  -38.9575 0.0000 38.4088
v  -38.9575 0.0000 57.6818
v  -9.3278 0.0000 38.4088
v  -9.3278 0.0000 57.6818
v  138.8203 0.0000 38.4088
v  168.4499 0.0000 38.4088
v  168.4499 0.0000 57.6818
v  138.8203 0.0000 57.6818
v  109.1907 0.0000 57.6818
v  109.1907 0.0000 38.4088
v  286.9684 0.0000 96.2277
v  257.3388 0.0000 96.2277
v  257.3388 0.0000 76.9547
v  286.9684 0.0000 76.9547
v  257.3388 0.0000 38.4088
v  286.9684 0.0000 38.4088
v  286.9684 0.0000 57.6818
v  257.3388 0.0000 57.6818
v  227.7092 0.0000 57.6818
v  227.7092 0.0000 38.4088
v  198.0796 0.0000 38.4088
v  198.0796 0.0000 57.6818
v  -187.1056 0.0000 19.1358
v  -157.4760 0.0000 19.1358
v  -187.1056 0.0000 -0.1372
v  -157.4760 0.0000 -0.1372
v  -187.1056 0.0000 -19.4101
v  -187.1056 0.0000 -38.6831
v  -157.4760 0.0000 -38.6831
v  -157.4760 0.0000 -19.4101
v  286.9684 0.0000 19.1358
v  257.3388 0.0000 19.1358
v  257.3388 0.0000 -0.1372
v  286.9684 0.0000 -0.1372
v  257.3388 0.0000 -38.6831
v  286.9684 0.0000 -38.6831
v  286.9684 0.0000 -19.4101
v  257.3388 0.0000 -19.4101
v  -187.1056 0.0000 -57.9561
v  -157.4760 0.0000 -57.9561
v  -187.1056 0.0000 -77.2291
v  -157.4760 0.0000 -77.2291
v  -187.1056 0.0000 -96.5020
v  -187.1056 0.0000 -115.7750
v  -157.4760 0.0000 -115.7750
v  -157.4760 0.0000 -96.5020
v  20.3018 0.0000 -115.7750
v  49.9314 0.0000 -115.7750
v  49.9314 0.0000 -96.5020
v  20.3018 0.0000 -96.5020
v  -9.3278 0.0000 -96.5020
v  -9.3278 0.0000 -115.7750
v  -38.9575 0.0000 -115.7750
v  -38.9575 0.0000 -96.5020
v  138.8203 0.0000 -115.7750
v  168.4499 0.0000 -115.7750
v  168.4499 0.0000 -96.5020
v  138.8203 0.0000 -96.5020
v  109.1907 0.0000 -96.5020
v  109.1907 0.0000 -115.7750
v  79.5611 0.0000 -115.7750
v  79.5611 0.0000 -96.5020
v  286.9684 0.0000 -57.9561
v  257.3388 0.0000 -57.9561
v  257.3388 0.0000 -77.2291
v  286.9684 0.0000 -77.2291
v  257.3388 0.0000 -115.7750
v  286.9684 0.0000 -115.7750
v  286.9684 0.0000 -96.5020
v  257.3388 0.0000 -96.5020
v  227.7092 0.0000 -96.5020
v  227.7092 0.0000 -115.7750
v  198.0796 0.0000 -115.7750
v  198.0796 0.0000 -96.5020
# 268 vertices

vn 0.0000 1.0000 -0.0000
vn 0.0000 -1.0000 -0.0000
vn -1.0000 0.0000 -0.0000
vn 0.0000 0.0000 1.0000
vn 0.0000 0.0000 -1.0000
vn 1.0000 0.0000 0.0000
vn 1.0000 0.0000 -0.0000
vn -1.0000 0.0000 0.0000
# 8 vertex normals

vt 0.0000 0.0625 0.0000
vt 0.0000 0.0000 0.0000
vt 0.0625 0.0000 0.0000
vt 0.0625 0.0625 0.0000
vt 0.1250 0.0000 0.0000
vt 0.1250 0.0625 0.0000
vt 0.0625 0.1250 0.0000
vt 0.0000 0.1250 0.0000
vt 0.1875 0.0000 0.0000
vt 0.2500 0.0000 0.0000
vt 0.2500 0.0625 0.0000
vt 0.1875 0.0625 0.0000
vt 0.0625 0.2500 0.0000
vt 0.0000 0.2500 0.0000
vt 0.0000 0.1875 0.0000
vt 0.0625 0.1875 0.0000
vt 0.3125 0.0000 0.0000
vt 0.3125 0.0625 0.0000
vt 0.3750 0.0000 0.0000
vt 0.3750 0.0625 0.0000
vt 0.4375 0.0000 0.0000
vt 0.5000 0.0000 0.0000
vt 0.5000 0.0625 0.0000
vt 0.4375 0.0625 0.0000
vt 0.5625 0.0000 0.0000
vt 0.5625 0.0625 0.0000
vt 0.6250 0.0000 0.0000
vt 0.6250 0.0625 0.0000
vt 0.6875 0.0000 0.0000
vt 0.7500 0.0000 0.0000
vt 0.7500 0.0625 0.0000
vt 0.6875 0.0625 0.0000
vt 0.8125 0.0000 0.0000
vt 0.8125 0.0625 0.0000
vt 0.8750 0.0000 0.0000
vt 0.8750 0.0625 0.0000
vt 0.9375 0.0000 0.0000
vt 1.0000 0.0000 0.0000
vt 1.0000 0.0625 0.0000
vt 0.9375 0.0625 0.0000
vt 1.0000 0.1250 0.0000
vt 0.9375 0.1250 0.0000
vt 1.0000 0.1875 0.0000
vt 1.0000 0.2500 0.0000
vt 0.9375 0.2500 0.0000
vt 0.9375 0.1875 0.0000
vt 0.0000 0.3125 0.0000
vt 0.0625 0.3125 0.0000
vt 0.0625 0.3750 0.0000
vt 0.0000 0.3750 0.0000
vt 0.2500 0.4375 0.0000
vt 0.2500 0.5000 0.0000
vt 0.1875 0.5000 0.0000
vt 0.1875 0.4375 0.0000
vt 0.1250 0.5000 0.0000
vt 0.1250 0.4375 0.0000
vt 0.0625 0.5000 0.0000
vt 0.0000 0.5000 0.0000
vt 0.0000 0.4375 0.0000
vt 0.0625 0.4375 0.0000
vt 0.3125 0.5000 0.0000
vt 0.3125 0.4375 0.0000
vt 0.3750 0.4375 0.0000
vt 0.3750 0.5000 0.0000
vt 0.7500 0.4375 0.0000
vt 0.7500 0.5000 0.0000
vt 0.6875 0.5000 0.0000
vt 0.6875 0.4375 0.0000
vt 0.6250 0.5000 0.0000
vt 0.6250 0.4375 0.0000
vt 1.0000 0.3125 0.0000
vt 0.9375 0.3125 0.0000
vt 1.0000 0.3750 0.0000
vt 0.9375 0.3750 0.0000
vt 1.0000 0.4375 0.0000
vt 1.0000 0.5000 0.0000
vt 0.9375 0.5000 0.0000
vt 0.9375 0.4375 0.0000
vt 0.8750 0.5000 0.0000
vt 0.8750 0.4375 0.0000
vt 0.8125 0.5000 0.0000
vt 0.8125 0.4375 0.0000
vt 0.0000 0.5625 0.0000
vt 0.0625 0.5625 0.0000
vt 0.0625 0.6250 0.0000
vt 0.0000 0.6250 0.0000
vt 0.0625 0.7500 0.0000
vt 0.0000 0.7500 0.0000
vt 0.0000 0.6875 0.0000
vt 0.0625 0.6875 0.0000
vt 1.0000 0.5625 0.0000
vt 0.9375 0.5625 0.0000
vt 1.0000 0.6250 0.0000
vt 0.9375 0.6250 0.0000
vt 1.0000 0.6875 0.0000
vt 1.0000 0.7500 0.0000
vt 0.9375 0.7500 0.0000
vt 0.9375 0.6875 0.0000
vt 0.0000 0.8125 0.0000
vt 0.0625 0.8125 0.0000
vt 0.0625 0.8750 0.0000
vt 0.0000 0.8750 0.0000
vt 0.0625 1.0000 0.0000
vt 0.0000 1.0000 0.0000
vt 0.0000 0.9375 0.0000
vt 0.0625 0.9375 0.0000
vt 0.5000 0.9375 0.0000
vt 0.5000 1.0000 0.0000
vt 0.4375 1.0000 0.0000
vt 0.4375 0.9375 0.0000
vt 0.3750 1.0000 0.0000
vt 0.3750 0.9375 0.0000
vt 0.3125 1.0000 0.0000
vt 0.3125 0.9375 0.0000
vt 0.7500 0.9375 0.0000
vt 0.7500 1.0000 0.0000
vt 0.6875 1.0000 0.0000
vt 0.6875 0.9375 0.0000
vt 0.6250 1.0000 0.0000
vt 0.6250 0.9375 0.0000
vt 0.5625 1.0000 0.0000
vt 0.5625 0.9375 0.0000
vt 1.0000 0.8125 0.0000
vt 0.9375 0.8125 0.0000
vt 1.0000 0.8750 0.0000
vt 0.9375 0.8750 0.0000
vt 1.0000 0.9375 0.0000
vt 1.0000 1.0000 0.0000
vt 0.9375 1.0000 0.0000
vt 0.9375 0.9375 0.0000
vt 0.8750 1.0000 0.0000
vt 0.8750 0.9375 0.0000
vt 0.8125 1.0000 0.0000
vt 0.8125 0.9375 0.0000
# 134 texture coords

g Plane001
usemtl wire_087225198
s 1
f 1/1/1 2/2/1 3/3/1 4/4/1 
f 3/3/1 5/5/1 6/6/1 4/4/1 
f 7/7/1 8/8/1 1/1/1 4/4/1 
f 9/9/1 10/10/1 11/11/1 12/12/1 
f 6/6/1 5/5/1 9/9/1 12/12/1 
f 13/13/1 14/14/1 15/15/1 16/16/1 
f 15/15/1 8/8/1 7/7/1 16/16/1 
f 11/11/1 10/10/1 17/17/1 18/18/1 
f 17/17/1 19/19/1 20/20/1 18/18/1 
f 21/21/1 22/22/1 23/23/1 24/24/1 
f 20/20/1 19/19/1 21/21/1 24/24/1 
f 23/23/1 22/22/1 25/25/1 26/26/1 
f 25/25/1 27/27/1 28/28/1 26/26/1 
f 29/29/1 30/30/1 31/31/1 32/32/1 
f 28/28/1 27/27/1 29/29/1 32/32/1 
f 31/31/1 30/30/1 33/33/1 34/34/1 
f 33/33/1 35/35/1 36/36/1 34/34/1 
f 37/37/1 38/38/1 39/39/1 40/40/1 
f 39/39/1 41/41/1 42/42/1 40/40/1 
f 36/36/1 35/35/1 37/37/1 40/40/1 
f 43/43/1 44/44/1 45/45/1 46/46/1 
f 42/42/1 41/41/1 43/43/1 46/46/1 
f 47/47/1 14/14/1 13/13/1 48/48/1 
f 49/49/1 50/50/1 47/47/1 48/48/1 
f 51/51/1 52/52/1 53/53/1 54/54/1 
f 53/53/1 55/55/1 56/56/1 54/54/1 
f 57/57/1 58/58/1 59/59/1 60/60/1 
f 59/59/1 50/50/1 49/49/1 60/60/1 
f 56/56/1 55/55/1 57/57/1 60/60/1 
f 61/61/1 52/52/1 51/51/1 62/62/1 
f 63/63/1 64/64/1 61/61/1 62/62/1 
f 65/65/1 66/66/1 67/67/1 68/68/1 
f 67/67/1 69/69/1 70/70/1 68/68/1 
f 45/45/1 44/44/1 71/71/1 72/72/1 
f 71/71/1 73/73/1 74/74/1 72/72/1 
f 75/75/1 76/76/1 77/77/1 78/78/1 
f 77/77/1 79/79/1 80/80/1 78/78/1 
f 74/74/1 73/73/1 75/75/1 78/78/1 
f 81/81/1 66/66/1 65/65/1 82/82/1 
f 80/80/1 79/79/1 81/81/1 82/82/1 
f 83/83/1 58/58/1 57/57/1 84/84/1 
f 85/85/1 86/86/1 83/83/1 84/84/1 
f 87/87/1 88/88/1 89/89/1 90/90/1 
f 89/89/1 86/86/1 85/85/1 90/90/1 
f 77/77/1 76/76/1 91/91/1 92/92/1 
f 91/91/1 93/93/1 94/94/1 92/92/1 
f 95/95/1 96/96/1 97/97/1 98/98/1 
f 94/94/1 93/93/1 95/95/1 98/98/1 
f 99/99/1 88/88/1 87/87/1 100/100/1 
f 101/101/1 102/102/1 99/99/1 100/100/1 
f 103/103/1 104/104/1 105/105/1 106/106/1 
f 105/105/1 102/102/1 101/101/1 106/106/1 
f 107/107/1 108/108/1 109/109/1 110/110/1 
f 109/109/1 111/111/1 112/112/1 110/110/1 
f 112/112/1 111/111/1 113/113/1 114/114/1 
f 115/115/1 116/116/1 117/117/1 118/118/1 
f 117/117/1 119/119/1 120/120/1 118/118/1 
f 121/121/1 108/108/1 107/107/1 122/122/1 
f 120/120/1 119/119/1 121/121/1 122/122/1 
f 97/97/1 96/96/1 123/123/1 124/124/1 
f 123/123/1 125/125/1 126/126/1 124/124/1 
f 127/127/1 128/128/1 129/129/1 130/130/1 
f 129/129/1 131/131/1 132/132/1 130/130/1 
f 126/126/1 125/125/1 127/127/1 130/130/1 
f 133/133/1 116/116/1 115/115/1 134/134/1 
f 132/132/1 131/131/1 133/133/1 134/134/1 
f 135/3/2 136/2/2 137/1/2 138/4/2 
f 139/6/2 140/5/2 135/3/2 138/4/2 
f 137/1/2 141/8/2 142/7/2 138/4/2 
f 143/11/2 144/10/2 145/9/2 146/12/2 
f 145/9/2 140/5/2 139/6/2 146/12/2 
f 147/15/2 148/14/2 149/13/2 150/16/2 
f 142/7/2 141/8/2 147/15/2 150/16/2 
f 151/17/2 144/10/2 143/11/2 152/18/2 
f 153/20/2 154/19/2 151/17/2 152/18/2 
f 155/23/2 156/22/2 157/21/2 158/24/2 
f 157/21/2 154/19/2 153/20/2 158/24/2 
f 159/25/2 156/22/2 155/23/2 160/26/2 
f 161/28/2 162/27/2 159/25/2 160/26/2 
f 163/31/2 164/30/2 165/29/2 166/32/2 
f 165/29/2 162/27/2 161/28/2 166/32/2 
f 167/33/2 164/30/2 163/31/2 168/34/2 
f 169/36/2 170/35/2 167/33/2 168/34/2 
f 171/39/2 172/38/2 173/37/2 174/40/2 
f 175/42/2 176/41/2 171/39/2 174/40/2 
f 173/37/2 170/35/2 169/36/2 174/40/2 
f 177/45/2 178/44/2 179/43/2 180/46/2 
f 179/43/2 176/41/2 175/42/2 180/46/2 
f 149/13/2 148/14/2 181/47/2 182/48/2 
f 181/47/2 183/50/2 184/49/2 182/48/2 
f 185/53/2 186/52/2 187/51/2 188/54/2 
f 189/56/2 190/55/2 185/53/2 188/54/2 
f 191/59/2 192/58/2 193/57/2 194/60/2 
f 184/49/2 183/50/2 191/59/2 194/60/2 
f 193/57/2 190/55/2 189/56/2 194/60/2 
f 187/51/2 186/52/2 195/61/2 196/62/2 
f 195/61/2 197/64/2 198/63/2 196/62/2 
f 199/67/2 200/66/2 201/65/2 202/68/2 
f 203/70/2 204/69/2 199/67/2 202/68/2 
f 205/71/2 178/44/2 177/45/2 206/72/2 
f 207/74/2 208/73/2 205/71/2 206/72/2 
f 209/77/2 210/76/2 211/75/2 212/78/2 
f 213/80/2 214/79/2 209/77/2 212/78/2 
f 211/75/2 208/73/2 207/74/2 212/78/2 
f 201/65/2 200/66/2 215/81/2 216/82/2 
f 215/81/2 214/79/2 213/80/2 216/82/2 
f 193/57/2 192/58/2 217/83/2 218/84/2 
f 217/83/2 219/86/2 220/85/2 218/84/2 
f 221/89/2 222/88/2 223/87/2 224/90/2 
f 220/85/2 219/86/2 221/89/2 224/90/2 
f 225/91/2 210/76/2 209/77/2 226/92/2 
f 227/94/2 228/93/2 225/91/2 226/92/2 
f 229/97/2 230/96/2 231/95/2 232/98/2 
f 231/95/2 228/93/2 227/94/2 232/98/2 
f 223/87/2 222/88/2 233/99/2 234/100/2 
f 233/99/2 235/102/2 236/101/2 234/100/2 
f 237/105/2 238/104/2 239/103/2 240/106/2 
f 236/101/2 235/102/2 237/105/2 240/106/2 
f 241/109/2 242/108/2 243/107/2 244/110/2 
f 245/112/2 246/111/2 241/109/2 244/110/2 
f 247/113/2 246/111/2 245/112/2 248/114/2 
f 249/117/2 250/116/2 251/115/2 252/118/2 
f 253/120/2 254/119/2 249/117/2 252/118/2 
f 243/107/2 242/108/2 255/121/2 256/122/2 
f 255/121/2 254/119/2 253/120/2 256/122/2 
f 257/123/2 230/96/2 229/97/2 258/124/2 
f 259/126/2 260/125/2 257/123/2 258/124/2 
f 261/129/2 262/128/2 263/127/2 264/130/2 
f 265/132/2 266/131/2 261/129/2 264/130/2 
f 263/127/2 260/125/2 259/126/2 264/130/2 
f 251/115/2 250/116/2 267/133/2 268/134/2 
f 267/133/2 266/131/2 265/132/2 268/134/2 
s 2
f 2/2/3 1/1/3 137/1/3 136/2/3 
s 4
f 3/3/4 2/2/4 136/2/4 135/3/4 
f 5/5/4 3/3/4 135/3/4 140/5/4 
s 2
f 4/4/5 6/6/5 139/6/5 138/4/5 
f 1/1/3 8/8/3 141/8/3 137/1/3 
s 4
f 7/7/6 4/4/6 138/4/6 142/7/6 
f 10/10/4 9/9/4 145/9/4 144/10/4 
s 2
f 12/12/5 11/11/5 143/11/5 146/12/5 
s 4
f 9/9/4 5/5/4 140/5/4 145/9/4 
s 2
f 6/6/5 12/12/5 146/12/5 139/6/5 
f 15/15/3 14/14/3 148/14/3 147/15/3 
s 4
f 13/13/7 16/16/7 150/16/7 149/13/7 
s 2
f 8/8/3 15/15/3 147/15/3 141/8/3 
s 4
f 16/16/7 7/7/6 142/7/6 150/16/7 
f 17/17/4 10/10/4 144/10/4 151/17/4 
s 2
f 11/11/5 18/18/5 152/18/5 143/11/5 
s 4
f 19/19/4 17/17/4 151/17/4 154/19/4 
s 2
f 18/18/5 20/20/5 153/20/5 152/18/5 
s 4
f 22/22/4 21/21/4 157/21/4 156/22/4 
s 2
f 24/24/5 23/23/5 155/23/5 158/24/5 
s 4
f 21/21/4 19/19/4 154/19/4 157/21/4 
s 2
f 20/20/5 24/24/5 158/24/5 153/20/5 
s 4
f 25/25/4 22/22/4 156/22/4 159/25/4 
s 2
f 23/23/5 26/26/5 160/26/5 155/23/5 
s 4
f 27/27/4 25/25/4 159/25/4 162/27/4 
s 2
f 26/26/5 28/28/5 161/28/5 160/26/5 
s 4
f 30/30/4 29/29/4 165/29/4 164/30/4 
s 2
f 32/32/5 31/31/5 163/31/5 166/32/5 
s 4
f 29/29/4 27/27/4 162/27/4 165/29/4 
s 2
f 28/28/5 32/32/5 166/32/5 161/28/5 
s 4
f 33/33/4 30/30/4 164/30/4 167/33/4 
s 2
f 31/31/5 34/34/5 168/34/5 163/31/5 
s 4
f 35/35/4 33/33/4 167/33/4 170/35/4 
s 2
f 34/34/5 36/36/5 169/36/5 168/34/5 
s 4
f 38/38/4 37/37/4 173/37/4 172/38/4 
s 2
f 39/39/7 38/38/7 172/38/7 171/39/7 
f 41/41/7 39/39/7 171/39/7 176/41/7 
s 4
f 40/40/3 42/42/3 175/42/3 174/40/3 
f 37/37/4 35/35/4 170/35/4 173/37/4 
s 2
f 36/36/5 40/40/5 174/40/5 169/36/5 
f 44/44/7 43/43/7 179/43/7 178/44/7 
s 4
f 46/46/3 45/45/3 177/45/3 180/46/3 
s 2
f 43/43/7 41/41/7 176/41/7 179/43/7 
s 4
f 42/42/3 46/46/3 180/46/3 175/42/3 
s 2
f 14/14/3 47/47/3 181/47/3 148/14/3 
s 4
f 48/48/6 13/13/7 149/13/7 182/48/6 
s 2
f 47/47/3 50/50/3 183/50/3 181/47/3 
s 4
f 49/49/7 48/48/6 182/48/6 184/49/7 
s 2
f 53/53/5 52/52/5 186/52/5 185/53/5 
f 51/51/4 54/54/4 188/54/4 187/51/4 
f 55/55/5 53/53/5 185/53/5 190/55/5 
f 54/54/4 56/56/4 189/56/4 188/54/4 
f 59/59/3 58/58/3 192/58/3 191/59/3 
f 50/50/3 59/59/3 191/59/3 183/50/3 
s 4
f 60/60/7 49/49/7 184/49/7 194/60/7 
s 2
f 57/57/5 55/55/5 190/55/5 193/57/5 
f 56/56/4 60/60/4 194/60/4 189/56/4 
f 52/52/5 61/61/5 195/61/5 186/52/5 
f 62/62/4 51/51/4 187/51/4 196/62/4 
s 4
f 64/64/7 63/63/7 198/63/7 197/64/7 
s 2
f 61/61/5 64/64/5 197/64/5 195/61/5 
f 63/63/4 62/62/4 196/62/4 198/63/4 
f 67/67/5 66/66/5 200/66/5 199/67/5 
f 65/65/4 68/68/4 202/68/4 201/65/4 
f 69/69/5 67/67/5 199/67/5 204/69/5 
s 4
f 70/70/3 69/69/3 204/69/3 203/70/3 
s 2
f 68/68/4 70/70/4 203/70/4 202/68/4 
f 71/71/7 44/44/7 178/44/7 205/71/7 
s 4
f 45/45/3 72/72/3 206/72/3 177/45/3 
s 2
f 73/73/7 71/71/7 205/71/7 208/73/7 
s 4
f 72/72/3 74/74/3 207/74/3 206/72/3 
s 2
f 76/76/7 75/75/7 211/75/7 210/76/7 
f 79/79/5 77/77/5 209/77/5 214/79/5 
f 78/78/4 80/80/4 213/80/4 212/78/4 
f 75/75/7 73/73/7 208/73/7 211/75/7 
s 4
f 74/74/3 78/78/3 212/78/3 207/74/3 
s 2
f 66/66/5 81/81/5 215/81/5 200/66/5 
f 82/82/4 65/65/4 201/65/4 216/82/4 
f 81/81/5 79/79/5 214/79/5 215/81/5 
f 80/80/4 82/82/4 216/82/4 213/80/4 
f 58/58/3 83/83/3 217/83/3 192/58/3 
s 4
f 84/84/6 57/57/7 193/57/7 218/84/6 
s 2
f 83/83/3 86/86/3 219/86/3 217/83/3 
s 4
f 85/85/6 84/84/6 218/84/6 220/85/6 
s 2
f 89/89/3 88/88/3 222/88/3 221/89/3 
s 4
f 87/87/7 90/90/7 224/90/7 223/87/7 
s 2
f 86/86/3 89/89/3 221/89/3 219/86/3 
s 4
f 90/90/7 85/85/6 220/85/6 224/90/7 
s 2
f 91/91/7 76/76/7 210/76/7 225/91/7 
s 4
f 77/77/3 92/92/3 226/92/3 209/77/3 
s 2
f 93/93/7 91/91/7 225/91/7 228/93/7 
s 4
f 92/92/3 94/94/3 227/94/3 226/92/3 
s 2
f 96/96/7 95/95/7 231/95/7 230/96/7 
s 4
f 98/98/3 97/97/3 229/97/3 232/98/3 
s 2
f 95/95/7 93/93/7 228/93/7 231/95/7 
s 4
f 94/94/3 98/98/3 232/98/3 227/94/3 
s 2
f 88/88/3 99/99/3 233/99/3 222/88/3 
s 4
f 100/100/6 87/87/7 223/87/7 234/100/6 
s 2
f 99/99/3 102/102/3 235/102/3 233/99/3 
s 4
f 101/101/7 100/100/6 234/100/6 236/101/7 
s 8
f 104/104/5 103/103/5 239/103/5 238/104/5 
s 2
f 105/105/3 104/104/3 238/104/3 237/105/3 
s 4
f 103/103/7 106/106/7 240/106/7 239/103/7 
s 2
f 102/102/3 105/105/3 237/105/3 235/102/3 
s 4
f 106/106/7 101/101/7 236/101/7 240/106/7 
f 109/109/5 108/108/5 242/108/5 241/109/5 
s 2
f 107/107/4 110/110/4 244/110/4 243/107/4 
s 4
f 111/111/5 109/109/5 241/109/5 246/111/5 
s 2
f 110/110/4 112/112/4 245/112/4 244/110/4 
s 4
f 113/113/5 111/111/5 246/111/5 247/113/5 
s 8
f 114/114/8 113/113/8 247/113/8 248/114/8 
s 2
f 112/112/4 114/114/4 248/114/4 245/112/4 
s 4
f 117/117/5 116/116/5 250/116/5 249/117/5 
s 2
f 115/115/4 118/118/4 252/118/4 251/115/4 
s 4
f 119/119/5 117/117/5 249/117/5 254/119/5 
s 2
f 118/118/4 120/120/4 253/120/4 252/118/4 
s 4
f 108/108/5 121/121/5 255/121/5 242/108/5 
s 2
f 122/122/4 107/107/4 243/107/4 256/122/4 
s 4
f 121/121/5 119/119/5 254/119/5 255/121/5 
s 2
f 120/120/4 122/122/4 256/122/4 253/120/4 
f 123/123/7 96/96/7 230/96/7 257/123/7 
s 4
f 97/97/3 124/124/3 258/124/3 229/97/3 
s 2
f 125/125/7 123/123/7 257/123/7 260/125/7 
s 4
f 124/124/3 126/126/3 259/126/3 258/124/3 
s 2
f 128/128/7 127/127/7 263/127/7 262/128/7 
s 4
f 129/129/5 128/128/5 262/128/5 261/129/5 
f 131/131/5 129/129/5 261/129/5 266/131/5 
s 2
f 130/130/4 132/132/4 265/132/4 264/130/4 
f 127/127/7 125/125/7 260/125/7 263/127/7 
s 4
f 126/126/3 130/130/3 264/130/3 259/126/3 
f 116/116/5 133/133/5 267/133/5 250/116/5 
s 2
f 134/134/4 115/115/4 251/115/4 268/134/4 
s 4
f 133/133/5 131/131/5 266/131/5 267/133/5 
s 2
f 132/132/4 134/134/4 268/134/4 265/132/4 
# 266 polygons

