# 3ds Max Wavefront OBJ Exporter v0.97b - (c)2007 guruware
# File Created: 09.12.2016 13:44:35

mtllib Walls-test.mtl

#
# object Floor_Generic_Floor___400mm__322617_
#

v  29.24 -4.00 31.90
v  -36.76 -4.00 31.90
v  -36.76 -4.00 -68.10
v  29.24 -4.00 -68.10
v  -36.76 0.00 -68.10
v  -36.76 0.00 31.90
v  29.24 0.00 31.90
v  29.24 0.00 -68.10
# 8 vertices

vn 0.00 -1.00 -0.00
vn 0.00 1.00 -0.00
vn 1.00 0.00 0.00
vn 0.00 0.00 1.00
vn -1.00 0.00 -0.00
vn 0.00 0.00 -1.00
# 6 vertex normals

vt -4.20 -0.35 0.00
vt -25.85 -0.35 0.00
vt -25.85 -33.16 0.00
vt -4.20 -33.16 0.00
vt -25.85 33.16 0.00
vt -25.85 0.35 0.00
vt -4.20 0.35 0.00
vt -4.20 33.16 0.00
vt 33.16 -1.31 0.00
vt 33.16 0.00 0.00
vt 0.35 0.00 0.00
vt 0.35 -1.31 0.00
vt -4.20 -1.31 0.00
vt -4.20 0.00 0.00
vt -25.85 0.00 0.00
vt -25.85 -1.31 0.00
vt -0.35 -1.31 0.00
vt -0.35 0.00 0.00
vt -33.16 0.00 0.00
vt -33.16 -1.31 0.00
vt -25.85 1.31 0.00
vt -25.85 -0.00 0.00
vt -4.20 -0.00 0.00
vt -4.20 1.31 0.00
# 24 texture coords

g Floor_Generic_Floor___400mm__322617_
usemtl wire_204204204
s off
f 1/1/1 2/2/1 3/3/1 4/4/1 
f 5/5/2 6/6/2 7/7/2 8/8/2 
f 4/9/3 8/10/3 7/11/3 1/12/3 
f 1/13/4 7/14/4 6/15/4 2/16/4 
f 2/17/5 6/18/5 5/19/5 3/20/5 
f 3/21/6 5/22/6 8/23/6 4/24/6 
# 6 polygons

#
# object Basic_Wall_Generic___200mm__322698_
#

v  -34.76 38.00 -66.10
v  -36.76 -0.00 -66.10
v  -34.76 0.00 -66.10
v  27.24 38.00 -66.10
v  27.24 0.00 -66.10
v  29.24 0.00 -66.10
v  29.24 38.00 -66.10
v  -36.76 38.00 -66.10
v  -36.76 38.00 -68.10
v  29.24 38.00 -68.10
v  29.24 0.00 -68.10
v  -36.76 0.00 -68.10
# 12 vertices

vn -0.00 0.00 1.00
vn 0.00 0.00 -1.00
vn 0.00 -1.00 -0.00
vn 0.00 1.00 -0.00
vn -1.00 0.00 -0.00
vn 1.00 0.00 0.00
# 6 vertex normals

vt 0.33 12.47 0.00
vt -0.33 -0.00 0.00
vt 0.33 0.00 0.00
vt 20.67 12.47 0.00
vt 20.67 0.00 0.00
vt 21.33 0.00 0.00
vt 21.33 12.47 0.00
vt -0.33 12.47 0.00
vt -21.33 12.47 0.00
vt -21.33 0.00 0.00
vt 21.33 -0.33 0.00
vt 21.33 0.33 0.00
vt 20.67 0.33 0.00
vt 0.33 0.33 0.00
vt -0.33 -0.33 0.00
vt -0.33 0.33 0.00
vt 20.67 -0.33 0.00
vt 0.33 -0.33 0.00
vt -32.15 12.47 0.00
vt -32.81 12.47 0.00
vt -32.81 0.00 0.00
vt -32.15 0.00 0.00
vt -0.33 0.00 0.00
# 23 texture coords

g Basic_Wall_Generic___200mm__322698_
usemtl wire_204204204
s off
f 9/25/7 10/26/7 11/27/7 12/28/7 
f 12/28/7 11/27/7 13/29/7 14/30/7 
f 15/31/7 12/28/7 14/30/7 
f 9/25/7 16/32/7 10/26/7 
f 17/25/8 18/33/8 19/34/8 20/27/8 
f 19/35/9 14/36/9 13/37/9 11/38/9 
f 20/39/9 19/35/9 11/38/9 10/40/9 
f 18/36/10 17/40/10 12/41/10 15/35/10 
f 9/42/10 12/41/10 17/40/10 16/39/10 
f 16/43/11 17/44/11 20/45/11 10/46/11 
f 14/47/12 19/27/12 18/25/12 15/32/12 
# 9 polygons - 2 triangles

#
# object Basic_Wall_Generic___200mm__324268_
#

v  5.24 38.00 29.90
v  5.24 21.00 29.90
v  -12.76 21.00 29.90
v  -12.76 38.00 29.90
v  -12.76 38.00 31.90
v  -12.76 21.00 31.90
v  5.24 21.00 31.90
v  5.24 38.00 31.90
# 8 vertices

vn 0.00 0.00 -1.00
vn -0.00 0.00 1.00
vn -1.00 0.00 -0.00
vn 1.00 0.00 0.00
vn 0.00 1.00 -0.00
vn 0.00 -1.00 -0.00
# 6 vertex normals

vt -0.00 12.47 0.00
vt -0.00 6.89 0.00
vt 5.91 6.89 0.00
vt 5.91 12.47 0.00
vt -5.91 12.47 0.00
vt -5.91 6.89 0.00
vt 0.00 6.89 0.00
vt 0.00 12.47 0.00
vt -0.33 12.47 0.00
vt -0.33 6.89 0.00
vt 0.33 6.89 0.00
vt 0.33 12.47 0.00
vt 5.91 -0.33 0.00
vt 5.91 0.33 0.00
vt 0.00 0.33 0.00
vt 0.00 -0.33 0.00
vt -0.00 -0.33 0.00
vt -0.00 0.33 0.00
# 18 texture coords

g Basic_Wall_Generic___200mm__324268_
usemtl wire_204204204
s off
f 21/48/13 22/49/13 23/50/13 24/51/13 
f 25/52/14 26/53/14 27/54/14 28/55/14 
f 24/56/15 23/57/15 26/58/15 25/59/15 
f 28/56/16 27/57/16 22/58/16 21/59/16 
f 24/60/17 25/61/17 28/62/17 21/63/17 
f 27/64/18 26/60/18 23/61/18 22/65/18 
# 6 polygons

#
# object Basic_Wall_Generic___200mm__368621_
#

v  -34.76 -0.00 31.90
v  -34.76 -0.00 -47.52
v  -34.76 21.34 -47.52
v  -34.76 38.00 31.90
v  -34.76 38.00 -66.10
v  -34.76 21.34 -56.67
v  -34.76 0.00 -66.10
v  -34.76 0.00 -56.67
v  -36.76 -0.00 -66.10
v  -36.76 0.00 -56.67
v  -36.76 21.34 -56.67
v  -36.76 38.00 -66.10
v  -36.76 21.34 -47.52
v  -36.76 38.00 31.90
v  -36.76 0.00 31.90
v  -36.76 0.00 -47.52
# 16 vertices

vn 1.00 0.00 0.00
vn -1.00 0.00 -0.00
vn 0.00 -1.00 -0.00
vn -0.00 0.00 1.00
vn 0.00 0.00 -1.00
vn 0.00 1.00 -0.00
# 6 vertex normals

vt -0.00 -0.00 0.00
vt 26.06 -0.00 0.00
vt 26.06 7.00 0.00
vt 0.00 12.47 0.00
vt 32.15 12.47 0.00
vt 29.06 7.00 0.00
vt 32.15 0.00 0.00
vt 29.06 0.00 0.00
vt -32.15 -0.00 0.00
vt -29.06 0.00 0.00
vt -29.06 7.00 0.00
vt -32.15 12.47 0.00
vt -26.06 7.00 0.00
vt 0.00 0.00 0.00
vt -26.06 0.00 0.00
vt 32.15 0.33 0.00
vt 29.06 0.33 0.00
vt 29.06 -0.33 0.00
vt 32.15 -0.33 0.00
vt 26.06 0.33 0.00
vt -0.00 0.33 0.00
vt -0.00 -0.33 0.00
vt 26.06 -0.33 0.00
vt 0.33 12.47 0.00
vt -0.33 12.47 0.00
vt -0.33 -0.00 0.00
vt 0.33 -0.00 0.00
vt -0.33 0.00 0.00
vt 0.33 0.00 0.00
vt 0.33 7.00 0.00
vt -0.33 7.00 0.00
# 31 texture coords

g Basic_Wall_Generic___200mm__368621_
usemtl wire_204204204
s off
f 29/66/19 30/67/19 31/68/19 32/69/19 
f 33/70/19 32/69/19 31/68/19 34/71/19 
f 35/72/19 33/70/19 34/71/19 36/73/19 
f 37/74/20 38/75/20 39/76/20 40/77/20 
f 40/77/20 39/76/20 41/78/20 42/69/20 
f 43/79/20 42/69/20 41/78/20 44/80/20 
f 35/81/21 36/82/21 38/83/21 37/84/21 
f 30/85/21 29/86/21 43/87/21 44/88/21 
f 32/89/22 42/90/22 43/91/22 29/92/22 
f 35/93/23 37/94/23 40/89/23 33/90/23 
f 33/84/24 40/81/24 42/86/24 32/87/24 
f 30/93/23 44/94/23 41/95/23 31/96/23 
f 31/85/21 41/88/21 39/83/21 34/82/21 
f 34/95/22 39/96/22 38/93/22 36/94/22 
# 14 polygons

#
# object Basic_Wall_Generic___375mm__368629_
#

v  -12.76 21.00 31.90
v  -16.76 38.00 31.90
v  -16.76 -0.00 31.90
v  -12.76 0.00 31.90
v  -12.76 38.00 31.90
v  -16.76 38.00 28.15
v  -12.76 38.00 28.15
v  -12.76 0.00 28.15
v  -16.76 0.00 28.15
v  -12.76 38.00 29.90
# 10 vertices

vn 0.00 0.00 1.00
vn 0.00 0.00 -1.00
vn 0.00 -1.00 -0.00
vn 1.00 0.00 -0.00
vn -1.00 0.00 -0.00
vn 0.00 1.00 -0.00
# 6 vertex normals

vt 1.31 6.89 0.00
vt 0.00 12.47 0.00
vt 0.00 -0.00 0.00
vt 1.31 0.00 0.00
vt 1.31 12.47 0.00
vt -0.00 12.47 0.00
vt -1.31 12.47 0.00
vt -1.31 0.00 0.00
vt -0.00 0.00 0.00
vt 0.00 0.62 0.00
vt 0.00 -0.62 0.00
vt 1.31 -0.62 0.00
vt 1.31 0.62 0.00
vt -0.62 6.89 0.00
vt -0.62 -0.00 0.00
vt 0.62 0.00 0.00
vt 0.62 12.47 0.00
vt 0.04 12.47 0.00
vt -0.62 12.47 0.00
vt 0.62 -0.00 0.00
vt 1.31 0.04 0.00
vt -0.00 0.62 0.00
vt -0.00 -0.62 0.00
# 23 texture coords

g Basic_Wall_Generic___375mm__368629_
usemtl wire_204204204
s off
f 45/97/25 46/98/25 47/99/25 48/100/25 
f 45/97/25 49/101/25 46/98/25 
f 50/102/26 51/103/26 52/104/26 53/105/26 
f 47/106/27 53/107/27 52/108/27 48/109/27 
f 45/110/28 48/111/28 52/112/28 51/113/28 
f 45/110/28 51/113/28 54/114/28 49/115/28 
f 46/113/29 50/115/29 53/111/29 47/116/29 
f 54/117/30 51/109/30 50/118/30 46/119/30 
f 46/119/30 49/108/30 54/117/30 
# 7 polygons - 2 triangles

#
# object Basic_Wall_Generic___200mm__368647_
#

v  27.24 0.00 31.90
v  27.24 38.00 31.90
v  27.24 38.00 -66.10
v  27.24 0.00 -66.10
v  29.24 38.00 -66.10
v  29.24 38.00 31.90
v  29.24 0.00 31.90
v  29.24 0.00 -66.10
# 8 vertices

vn -1.00 0.00 -0.00
vn 1.00 0.00 0.00
vn 0.00 -1.00 -0.00
vn 0.00 0.00 1.00
vn 0.00 0.00 -1.00
vn 0.00 1.00 -0.00
# 6 vertex normals

vt 32.48 0.00 0.00
vt 32.48 12.47 0.00
vt 0.33 12.47 0.00
vt 0.33 0.00 0.00
vt -0.33 12.47 0.00
vt -32.48 12.47 0.00
vt -32.48 0.00 0.00
vt -0.33 0.00 0.00
vt 0.33 0.33 0.00
vt 0.33 -0.33 0.00
vt 32.48 -0.33 0.00
vt 32.48 0.33 0.00
# 12 texture coords

g Basic_Wall_Generic___200mm__368647_
usemtl wire_204204204
s off
f 55/120/31 56/121/31 57/122/31 58/123/31 
f 59/124/32 60/125/32 61/126/32 62/127/32 
f 58/128/33 62/129/33 61/130/33 55/131/33 
f 55/127/34 61/123/34 60/122/34 56/124/34 
f 57/122/35 59/124/35 62/127/35 58/123/35 
f 56/130/36 60/131/36 59/128/36 57/129/36 
# 6 polygons

#
# object Basic_Wall_Generic___375mm__368655_
#

v  5.24 0.00 28.15
v  5.24 38.00 28.15
v  9.24 38.00 28.15
v  9.24 0.00 28.15
v  9.24 0.00 31.90
v  9.24 38.00 31.90
v  5.24 21.00 31.90
v  5.24 -0.00 31.90
v  5.24 38.00 31.90
v  5.24 38.00 29.90
# 10 vertices

vn 0.00 0.00 -1.00
vn 0.00 0.00 1.00
vn 0.00 -1.00 -0.00
vn -1.00 0.00 -0.00
vn 1.00 0.00 -0.00
vn 0.00 1.00 -0.00
# 6 vertex normals

vt 1.31 0.00 0.00
vt 1.31 12.47 0.00
vt 0.00 12.47 0.00
vt 0.00 0.00 0.00
vt -0.00 0.00 0.00
vt -0.00 12.47 0.00
vt -1.31 6.89 0.00
vt -1.31 -0.00 0.00
vt -1.31 12.47 0.00
vt 0.00 0.62 0.00
vt 0.00 -0.62 0.00
vt 1.31 -0.62 0.00
vt 1.31 0.62 0.00
vt 0.62 6.89 0.00
vt -0.04 12.47 0.00
vt -0.62 12.47 0.00
vt -0.62 -0.00 0.00
vt 0.62 0.00 0.00
vt 0.62 12.47 0.00
vt 0.62 -0.00 0.00
vt 1.31 -0.04 0.00
# 21 texture coords

g Basic_Wall_Generic___375mm__368655_
usemtl wire_204204204
s off
f 63/132/37 64/133/37 65/134/37 66/135/37 
f 67/136/38 68/137/38 69/138/38 70/139/38 
f 69/138/38 68/137/38 71/140/38 
f 66/141/39 67/142/39 70/143/39 63/144/39 
f 69/145/40 72/146/40 64/147/40 63/148/40 
f 70/149/40 69/145/40 63/148/40 
f 69/145/40 71/150/40 72/146/40 
f 65/150/41 68/147/41 67/148/41 66/151/41 
f 65/142/42 64/143/42 72/152/42 68/141/42 
f 71/144/42 68/141/42 72/152/42 
# 6 polygons - 4 triangles

#
# object M_Single_Flush_0915_x_2134mm__371596_
#

v  -34.51 21.34 -56.67
v  -34.51 0.00 -57.43
v  -34.51 22.10 -57.43
v  -34.51 21.34 -47.52
v  -34.51 22.10 -46.76
v  -34.51 0.00 -46.76
v  -34.51 0.00 -47.52
v  -34.51 0.00 -56.67
v  -34.76 21.34 -47.52
v  -34.76 0.00 -46.76
v  -34.76 22.10 -46.76
v  -34.76 21.34 -56.67
v  -34.76 22.10 -57.43
v  -34.76 0.00 -57.43
v  -34.76 0.00 -56.67
v  -34.76 0.00 -47.52
v  -37.01 21.34 -47.52
v  -37.01 0.00 -46.76
v  -37.01 22.10 -46.76
v  -37.01 21.34 -56.67
v  -37.01 22.10 -57.43
v  -37.01 0.00 -57.43
v  -37.01 0.00 -56.67
v  -37.01 0.00 -47.52
v  -36.76 21.34 -56.67
v  -36.76 0.00 -57.43
v  -36.76 22.10 -57.43
v  -36.76 21.34 -47.52
v  -36.76 22.10 -46.76
v  -36.76 0.00 -46.76
v  -36.76 0.00 -47.52
v  -36.76 0.00 -56.67
v  -35.27 21.34 -56.67
v  -35.27 0.00 -56.67
v  -35.27 0.00 -47.52
v  -35.27 21.34 -47.52
# 36 vertices

vn 1.00 0.00 0.00
vn -1.00 0.00 -0.00
vn 0.00 1.00 -0.00
vn -0.00 0.00 1.00
vn 0.00 -1.00 -0.00
vn 0.00 0.00 -1.00
# 6 vertex normals

vt -3.50 7.00 0.00
vt -3.25 0.00 0.00
vt -3.25 7.25 0.00
vt -6.50 7.00 0.00
vt -6.75 7.25 0.00
vt -6.75 0.00 0.00
vt -6.50 0.00 0.00
vt -3.50 0.00 0.00
vt 6.50 7.00 0.00
vt 6.75 0.00 0.00
vt 6.75 7.25 0.00
vt 3.50 7.00 0.00
vt 3.25 7.25 0.00
vt 3.25 0.00 0.00
vt 3.50 0.00 0.00
vt 6.50 0.00 0.00
vt -5.25 -0.08 0.00
vt -5.25 0.00 0.00
vt -8.75 0.00 0.00
vt -8.75 -0.08 0.00
vt 0.08 7.25 0.00
vt -0.00 7.25 0.00
vt -0.00 0.00 0.00
vt 0.08 0.00 0.00
vt 8.75 -0.08 0.00
vt 8.75 0.00 0.00
vt 8.50 0.00 0.00
vt 8.50 -0.08 0.00
vt -0.08 0.00 0.00
vt 0.00 0.00 0.00
vt 0.00 7.00 0.00
vt -0.08 7.00 0.00
vt 5.50 0.00 0.00
vt 5.50 -0.08 0.00
vt 0.08 7.00 0.00
vt -0.00 7.00 0.00
vt 5.25 0.00 0.00
vt 5.25 -0.08 0.00
vt 0.00 7.25 0.00
vt -0.08 7.25 0.00
vt -4.75 0.08 0.00
vt -4.75 -0.00 0.00
vt -1.25 -0.00 0.00
vt -1.25 0.08 0.00
vt 1.25 0.08 0.00
vt 1.25 -0.00 0.00
vt 1.50 -0.00 0.00
vt 1.50 0.08 0.00
vt 4.50 -0.00 0.00
vt 4.50 0.08 0.00
vt 4.75 -0.00 0.00
vt 4.75 0.08 0.00
vt -1.50 7.00 0.00
vt -1.50 0.00 0.00
vt 1.50 0.00 0.00
vt 1.50 7.00 0.00
vt 0.50 -0.16 0.00
vt 0.50 -0.33 0.00
vt 3.50 -0.33 0.00
vt 3.50 -0.16 0.00
vt -0.16 7.00 0.00
vt -0.33 7.00 0.00
vt -0.33 0.00 0.00
vt -0.16 0.00 0.00
vt -3.50 -0.16 0.00
vt -3.50 -0.33 0.00
vt -0.50 -0.33 0.00
vt -0.50 -0.16 0.00
vt 0.16 0.00 0.00
vt 0.33 0.00 0.00
vt 0.33 7.00 0.00
vt 0.16 7.00 0.00
# 72 texture coords

g M_Single_Flush_0915_x_2134mm__371596_
usemtl wire_204204204
s off
f 73/153/43 74/154/43 75/155/43 76/156/43 
f 76/156/43 75/155/43 77/157/43 78/158/43 
f 78/158/43 79/159/43 76/156/43 
f 80/160/43 74/154/43 73/153/43 
f 81/161/44 82/162/44 83/163/44 84/164/44 
f 84/164/44 83/163/44 85/165/44 86/166/44 
f 86/166/44 87/167/44 84/164/44 
f 88/168/44 82/162/44 81/161/44 
f 75/169/45 85/170/45 83/171/45 77/172/45 
f 77/173/46 83/174/46 82/175/46 78/176/46 
f 78/177/47 82/178/47 88/179/47 79/180/47 
f 79/181/48 88/182/48 81/183/48 76/184/48 
f 76/180/47 81/179/47 84/185/47 73/186/47 
f 73/187/46 84/188/46 87/175/46 80/176/46 
f 80/186/47 87/185/47 86/189/47 74/190/47 
f 74/181/48 86/182/48 85/191/48 75/192/48 
f 89/161/44 90/162/44 91/163/44 92/164/44 
f 92/164/44 91/163/44 93/165/44 94/166/44 
f 94/166/44 95/167/44 92/164/44 
f 96/168/44 90/162/44 89/161/44 
f 97/153/43 98/154/43 99/155/43 100/156/43 
f 100/156/43 99/155/43 101/157/43 102/158/43 
f 102/158/43 103/159/43 100/156/43 
f 104/160/43 98/154/43 97/153/43 
f 91/193/45 101/194/45 99/195/45 93/196/45 
f 93/173/48 99/174/48 98/175/48 94/176/48 
f 94/197/47 98/198/47 104/199/47 95/200/47 
f 95/181/46 104/182/46 97/183/46 92/184/46 
f 92/200/47 97/199/47 100/201/47 89/202/47 
f 89/187/48 100/188/48 103/175/48 96/176/48 
f 96/202/47 103/201/47 102/203/47 90/204/47 
f 90/181/46 102/182/46 101/191/46 91/192/46 
f 105/205/44 106/206/44 107/207/44 108/208/44 
f 88/206/43 87/207/43 84/208/43 81/205/43 
f 108/209/45 81/210/45 84/211/45 105/212/45 
f 105/213/48 84/214/48 87/215/48 106/216/48 
f 106/217/47 87/218/47 88/219/47 107/220/47 
f 107/221/46 88/222/46 81/223/46 108/224/46 
# 30 polygons - 8 triangles

